<?xml version="1.0" encoding="utf-8"?>
<!-- Generator: Adobe Illustrator 24.0.2, SVG Export Plug-In . SVG Version: 6.00 Build 0)  -->
<svg version="1.1" id="Layer_1" xmlns="http://www.w3.org/2000/svg" xmlns:xlink="http://www.w3.org/1999/xlink" x="0px" y="0px"
	 width="29px" height="60px" viewBox="0 0 29 60" style="enable-background:new 0 0 29 60;" xml:space="preserve">
<style type="text/css">
	.st0{fill:#FFFFFF;}
	.st1{fill:#3F873F;}
	.st2{fill-rule:evenodd;clip-rule:evenodd;fill:#3F873F;}
</style>
<g>
	<path class="st0" d="M14.5,26.1L14.5,26.1C14.5,26.1,14.5,26.1,14.5,26.1C14.5,26.1,14.5,26.1,14.5,26.1z"/>
	<path class="st0" d="M14.5,3.6L14.5,3.6C14.5,3.6,14.5,3.6,14.5,3.6C14.5,3.6,14.5,3.6,14.5,3.6L14.5,3.6C14,4.2,4.4,14.5,4.3,31.4
		c0,7.6,2,13.9,4.1,18.7c1.9,0.6,3.9,0.9,6,0.9c0,0,0,0,0,0v0c2.1,0,4.1-0.3,6-0.9c2.2-4.7,4.1-11.1,4.1-18.6
		C24.6,14.5,15,4.2,14.5,3.6z M19,27.8c-2.5,2.5-6.5,2.5-8.9,0c-2.5-2.5-2.5-6.5,0-8.9c2.5-2.5,6.5-2.5,8.9,0
		C21.4,21.4,21.4,25.4,19,27.8z"/>
	<path class="st1" d="M3.1,32.7C3.2,38.9,5,44.6,5.5,46c-1.9-0.3-3.6-0.6-5-0.9C0.7,36,3.1,32.7,3.1,32.7"/>
	<path class="st1" d="M25.9,32.7c0,0,2.4,3.3,2.6,12.4c-1.4,0.4-3,0.7-5,0.9C24,44.6,25.8,38.9,25.9,32.7"/>
	<path class="st0" d="M14.5,56.4c0.2-0.2,1.4-1.5,2.9-3.9c-0.8,0.2-1.8,0.3-2.9,0.3c-1,0-2-0.1-2.9-0.3
		C13.1,54.8,14.4,56.2,14.5,56.4L14.5,56.4L14.5,56.4L14.5,56.4L14.5,56.4z"/>
	<g>
		<path class="st2" d="M10,20.8l-0.7,2.5C9.4,22.4,9.6,21.5,10,20.8"/>
		<path class="st2" d="M10.9,19.7l-1.5,4.4c0.1,0.4,0.1,0.8,0.3,1.1l1.4-5.7C11,19.5,11,19.6,10.9,19.7"/>
		<path class="st2" d="M11.9,18.9l-2.1,6.4c0.1,0.3,0.3,0.6,0.5,0.9l1.9-7.4C12,18.8,12,18.8,11.9,18.9"/>
		<path class="st2" d="M13,18.4l-2.7,7.9c0.2,0.2,0.3,0.4,0.5,0.6l2.4-8.6C13.1,18.4,13.1,18.4,13,18.4"/>
		<path class="st2" d="M13.9,18.2L11,27.1c0.2,0.2,0.3,0.3,0.5,0.4l2.5-9.3C13.9,18.2,13.9,18.2,13.9,18.2"/>
		<path class="st2" d="M14.6,18.2l-3,9.5c0.2,0.1,0.4,0.2,0.6,0.3l2.5-9.8C14.7,18.2,14.6,18.2,14.6,18.2"/>
		<path class="st2" d="M15.4,18.3L12.3,28c0.2,0.1,0.4,0.2,0.6,0.3l2.6-10C15.5,18.3,15.5,18.3,15.4,18.3"/>
		<path class="st2" d="M16,18.4l-2.9,9.9c0.2,0.1,0.4,0.1,0.6,0.1l2.5-10C16.1,18.4,16.1,18.4,16,18.4"/>
		<path class="st2" d="M16.7,18.7l-2.9,9.8c0.2,0,0.5,0,0.7,0c0,0,0,0,0,0l2.3-9.8C16.8,18.7,16.7,18.7,16.7,18.7"/>
		<path class="st2" d="M17.4,19.1l-2.7,9.4c0.2,0,0.4,0,0.6-0.1l2.2-9.3C17.5,19.1,17.4,19.1,17.4,19.1"/>
		<path class="st2" d="M18.1,19.7l-2.6,8.8c0.2,0,0.4-0.1,0.6-0.2l2.1-8.5C18.2,19.7,18.1,19.7,18.1,19.7"/>
		<path class="st2" d="M18.7,20.4l-2.4,7.8c0.3-0.1,0.5-0.2,0.8-0.4l1.7-7.2C18.8,20.5,18.8,20.4,18.7,20.4"/>
		<path class="st2" d="M19.2,21.4l-1.9,6.3c0.3-0.2,0.6-0.4,0.8-0.7l1.2-5.3C19.3,21.6,19.3,21.5,19.2,21.4"/>
		<path class="st2" d="M19.6,22.5l-1,4c0.2-0.2,0.3-0.5,0.5-0.8l0.5-2.7C19.6,22.8,19.6,22.6,19.6,22.5"/>
	</g>
</g>
</svg>
