<?xml version="1.0" encoding="utf-8"?>
<!-- Generator: Adobe Illustrator 26.5.0, SVG Export Plug-In . SVG Version: 6.00 Build 0)  -->
<svg version="1.1" id="Layer_1" xmlns="http://www.w3.org/2000/svg" xmlns:xlink="http://www.w3.org/1999/xlink" x="0px" y="0px"
	 viewBox="0 0 258.02 258.02" style="enable-background:new 0 0 258.02 258.02;" xml:space="preserve">
<style type="text/css">
	.st0{fill-rule:evenodd;clip-rule:evenodd;fill:#FFDA00;}
	.st1{fill-rule:evenodd;clip-rule:evenodd;}
	.st2{fill-rule:evenodd;clip-rule:evenodd;fill:#1D3661;}
</style>
<g>
	<g>
		<g>
			
				<ellipse transform="matrix(0.9985 -0.0553 0.0553 0.9985 -6.937 7.3318)" class="st0" cx="129.01" cy="129.01" rx="93.54" ry="93.54"/>
			<g>
				<path class="st1" d="M150.27,61.41"/>
				<path class="st2" d="M146.02,60.22c-4.57-1.13-9.31-1.81-14.17-2.01v58.04c0,3.13-2.54,5.67-5.67,5.67l0-63.71
					c-4.87,0.19-9.61,0.88-14.17,2.01V197.8c4.57,1.13,9.31,1.81,14.17,2.01V136.1c3.13,0,5.67,2.54,5.67,5.67v58.04
					c4.87-0.19,9.61-0.88,14.17-2.01v-56.03c0-4.86-1.75-9.31-4.65-12.76c2.9-3.45,4.65-7.9,4.65-12.76V60.22z"/>
				<path class="st2" d="M129.01,35.47c-51.58,0-93.54,41.96-93.54,93.54s41.96,93.54,93.54,93.54c51.58,0,93.54-41.96,93.54-93.54
					S180.59,35.47,129.01,35.47z M129.01,216.89c-48.45,0-87.87-39.42-87.87-87.88c0-48.45,39.42-87.87,87.87-87.87
					c48.45,0,87.87,39.42,87.87,87.87C216.88,177.46,177.46,216.89,129.01,216.89z"/>
				<path class="st2" d="M129.01,46.81c-45.33,0-82.2,36.88-82.2,82.2c0,45.33,36.88,82.21,82.2,82.21
					c45.33,0,82.21-36.88,82.21-82.21C211.21,83.68,174.34,46.81,129.01,46.81z M129.01,205.55c-42.2,0-76.53-34.33-76.53-76.54
					c0-42.2,34.33-76.53,76.53-76.53c42.2,0,76.54,34.33,76.54,76.53C205.55,171.21,171.21,205.55,129.01,205.55z"/>
				<path class="st2" d="M107.75,196.62c-4.99-1.57-9.73-3.69-14.17-6.27l0-64.16l-9.17,19.08l-11.71-22.68
					c-0.24,2.11-0.38,4.26-0.38,6.43c0,10.59,2.93,20.5,8,28.99l-11.99,7.57c-6.46-10.68-10.18-23.2-10.18-36.56
					c0-16.09,5.4-30.93,14.46-42.84l11.52,25.37l23.62-50.14L107.75,196.62z"/>
				<path class="st2" d="M164.44,84.8c8.46,6.79,14.92,15.96,18.4,26.47l13.54-4.24c-7.08-21.66-24.34-38.77-46.11-45.63l0,135.21
					c21.77-6.86,39.02-23.97,46.11-45.63l-13.54-4.24c-3.48,10.51-9.94,19.68-18.39,26.47V136.1h18.43v-14.17h-18.43V84.8z"/>
			</g>
		</g>
	</g>
</g>
</svg>
