<?xml version="1.0" encoding="UTF-8"?>
<svg version="1.1" xmlns="http://www.w3.org/2000/svg" width="600" height="270">
<path d="M0 0 C0.99 0 1.98 0 3 0 C-0.13345778 12.69755314 -3.42624733 25.35109387 -6.75 38 C-7.26180307 39.95049871 -7.77352233 41.90101941 -8.28515625 43.8515625 C-9.52247435 48.56796168 -10.76091606 53.28406444 -12 58 C-11.74420166 57.20231201 -11.48840332 56.40462402 -11.22485352 55.58276367 C-5.26583202 37.01541378 0.78913512 18.48493325 7 0 C7.66 0 8.32 0 9 0 C8.23645092 6.79429269 6.51622012 13.3146681 4.83984375 19.93359375 C4.56563599 21.02740356 4.29142822 22.12121338 4.00891113 23.24816895 C2.9889823 27.31225371 1.96287816 31.37478669 0.9375 35.4375 C-1.351875 44.533125 -3.64125 53.62875 -6 63 C0.6 42.54 7.2 22.08 14 1 C14.99 1 15.98 1 17 1 C13.24725523 17.39356925 9.1014798 33.69109544 5 50 C5.16873123 49.41340103 5.33746246 48.82680206 5.51130676 48.22242737 C7.26484823 42.13534132 9.03562769 36.05346599 10.81665039 29.97436523 C11.47964821 27.70287846 12.13819157 25.43008671 12.79223633 23.15600586 C13.73139964 19.89346201 14.68631657 16.63589792 15.64453125 13.37890625 C15.9352803 12.35599991 16.22602936 11.33309357 16.52558899 10.27919006 C16.80565292 9.33829025 17.08571686 8.39739044 17.37426758 7.42797852 C17.61631424 6.59524918 17.8583609 5.76251984 18.10774231 4.90455627 C18.40218735 4.2760527 18.69663239 3.64754913 19 3 C19.99 2.67 20.98 2.34 22 2 C21.38115291 9.30908585 19.87520668 16.15536516 18.05859375 23.25390625 C17.77146011 24.39536606 17.48432648 25.53682587 17.18849182 26.71287537 C16.27704542 30.33084509 15.35740642 33.94667313 14.4375 37.5625 C13.81521144 40.02655544 13.19346099 42.49074686 12.57226562 44.95507812 C11.05440017 50.97163936 9.52981682 56.98646718 8 63 C9.77958166 57.13291767 11.55767322 51.26538644 13.33447266 45.39746094 C13.93726803 43.40743247 14.54044814 41.4175205 15.14404297 39.42773438 C15.73040956 37.4945722 16.31622976 35.56124421 16.90148926 33.62774658 C17.47528613 31.73244988 18.05038977 29.83754829 18.62683105 27.9430542 C19.87766628 23.8131429 21.10349009 19.68410946 22.20898438 15.51269531 C22.54736328 14.24264648 22.88574219 12.97259766 23.234375 11.6640625 C23.64768066 10.03525146 23.64768066 10.03525146 24.06933594 8.37353516 C24.37645508 7.59026855 24.68357422 6.80700195 25 6 C25.99 5.67 26.98 5.34 28 5 C27.35012812 12.56310359 25.80710726 19.74916199 24.05859375 27.12890625 C23.80404419 28.2207019 23.54949463 29.31249756 23.28723145 30.43737793 C22.34300814 34.4804177 21.3897297 38.52133843 20.4375 42.5625 C18.313125 51.616875 16.18875 60.67125 14 70 C19.94 49.54 25.88 29.08 32 8 C32.99 8.33 33.98 8.66 35 9 C32.20765814 21.73885612 29.27170295 34.43874105 26.25 47.125 C25.83451636 48.87366963 25.41915128 50.62236744 25.00390625 52.37109375 C24.00396255 56.5810533 23.00244367 60.79063506 22 65 C23.32873609 61.77076961 24.49967084 58.55108623 25.51220703 55.2097168 C25.7923465 54.28913986 26.07248596 53.36856293 26.3611145 52.42008972 C26.65702484 51.4397023 26.95293518 50.45931488 27.2578125 49.44921875 C27.56572723 48.43527542 27.87364197 47.42133209 28.19088745 46.37666321 C29.17098636 43.14756316 30.14803224 39.9175486 31.125 36.6875 C31.79016328 34.49407957 32.45552557 32.30071948 33.12109375 30.10742188 C34.74970314 24.73897849 36.37580885 19.36978164 38 14 C38.99 14 39.98 14 41 14 C39.69482578 21.68277557 38.05818613 29.23137219 36.1796875 36.79296875 C35.91616486 37.86501053 35.65264221 38.93705231 35.38113403 40.0415802 C34.54886021 43.42432724 33.71201216 46.80592264 32.875 50.1875 C32.30568521 52.4979719 31.73667196 54.80851812 31.16796875 57.11914062 C29.78212801 62.74695703 28.39254242 68.37383833 27 74 C27.19822861 73.35298126 27.39645721 72.70596252 27.60069275 72.03933716 C29.65868697 65.32326505 31.71912606 58.6079466 33.78100586 51.89306641 C34.55084346 49.38479671 35.32005114 46.87633359 36.08862305 44.36767578 C37.19155143 40.76804748 38.29672122 37.16911407 39.40234375 33.5703125 C39.74716293 32.44319855 40.09198212 31.31608459 40.44725037 30.15481567 C40.92763512 28.59342361 40.92763512 28.59342361 41.41772461 27.00048828 C41.69974228 26.08115509 41.98175995 25.1618219 42.27232361 24.21463013 C43 22 43 22 44 20 C44.66 20 45.32 20 46 20 C45.50691382 27.2869233 44.47038033 34.17695007 42.71484375 41.26171875 C42.49429825 42.17838821 42.27375275 43.09505768 42.04652405 44.039505 C41.35078777 46.92398899 40.6443598 49.80572411 39.9375 52.6875 C39.45957201 54.66063438 38.98235224 56.63394044 38.50585938 58.60742188 C37.34540311 63.40696813 36.17536072 68.20408293 35 73 C35.15620316 72.46351334 35.31240631 71.92702667 35.4733429 71.37428284 C37.0971743 65.80619233 38.73818547 60.24337841 40.3894043 54.68334961 C41.00388378 52.60588564 41.61392594 50.52710392 42.21948242 48.44702148 C43.08918867 45.46242858 43.97458904 42.4828927 44.86328125 39.50390625 C45.26659416 38.10078941 45.26659416 38.10078941 45.67805481 36.66932678 C45.93809799 35.80850998 46.19814117 34.94769318 46.46606445 34.06079102 C46.69034622 33.29912125 46.91462799 32.53745148 47.14570618 31.75270081 C47.42762314 31.17430954 47.7095401 30.59591827 48 30 C48.99 29.67 49.98 29.34 51 29 C50.56556788 38.69440163 48.57279482 48.08077135 46.51879883 57.53515625 C46.13033881 59.34938364 45.7553832 61.1665537 45.39379883 62.98632812 C41.73194014 81.39986788 41.73194014 81.39986788 35.00024414 85.921875 C34.34016357 86.27765625 33.68008301 86.6334375 33 87 C31.92234375 87.64710938 30.8446875 88.29421875 29.734375 88.9609375 C28.25710937 89.66089844 28.25710937 89.66089844 26.75 90.375 C25.75484375 90.85710937 24.7596875 91.33921875 23.734375 91.8359375 C13.52970191 96.18021262 -0.9365899 95.66892358 -11.25 91.9375 C-16.68471814 89.45751128 -21.80857076 86.29973491 -26 82 C-26 81.34 -26 80.68 -26 80 C-26.61875 79.773125 -27.2375 79.54625 -27.875 79.3125 C-30.61410209 77.62070165 -31.05024472 76.00755839 -32 73 C-32.66 73 -33.32 73 -34 73 C-34.83209146 71.38494426 -35.63950019 69.75716958 -36.4375 68.125 C-36.88996094 67.22007812 -37.34242187 66.31515625 -37.80859375 65.3828125 C-40.65526228 57.30014054 -40.17487877 50.54491034 -37.39453125 42.5625 C-37.11405441 41.71574707 -36.83357758 40.86899414 -36.54460144 39.99658203 C-35.95281848 38.2255 -35.35148045 36.45758402 -34.7409668 34.69287109 C-33.80801533 31.98699293 -32.91298685 29.27056123 -32.02148438 26.55078125 C-31.43969852 24.82477821 -30.85578926 23.09948914 -30.26953125 21.375 C-29.86925468 20.15792358 -29.86925468 20.15792358 -29.46089172 18.91625977 C-29.19769638 18.16787842 -28.93450104 17.41949707 -28.66333008 16.6484375 C-28.43825272 15.99020996 -28.21317535 15.33198242 -27.98127747 14.65380859 C-26.69884241 12.49244019 -25.28798708 11.93155299 -23 11 C-23.26554687 12.18335937 -23.53109375 13.36671875 -23.8046875 14.5859375 C-24.16151669 16.18227862 -24.5182842 17.77863354 -24.875 19.375 C-25.04902344 20.14972656 -25.22304688 20.92445312 -25.40234375 21.72265625 C-26.68395492 27.46617297 -27.86703516 33.2253865 -29 39 C-28.53158691 37.50835327 -28.53158691 37.50835327 -28.05371094 35.98657227 C-26.89253623 32.30418865 -25.70965036 28.62908993 -24.52001953 24.95581055 C-24.00786335 23.36396939 -23.50164356 21.7702057 -23.00146484 20.17456055 C-22.28207876 17.88320902 -21.5417315 15.59958547 -20.796875 13.31640625 C-20.57690857 12.59973282 -20.35694214 11.88305939 -20.13031006 11.14466858 C-19.46386719 9.14282227 -19.46386719 9.14282227 -18 6 C-15.82519531 5.04272461 -15.82519531 5.04272461 -14 5 C-17.67850795 22.82661545 -22.42847384 40.38617862 -27 58 C-20.73 39.52 -14.46 21.04 -8 2 C-7.01 2 -6.02 2 -5 2 C-6.28802266 8.90682255 -7.90253888 15.65852268 -9.78515625 22.42578125 C-10.17688271 23.85170845 -10.17688271 23.85170845 -10.57652283 25.30644226 C-11.4019183 28.30937178 -12.23187977 31.31101188 -13.0625 34.3125 C-13.89607312 37.33200483 -14.72862534 40.35178198 -15.55918884 43.37211609 C-16.07370524 45.24243941 -16.59003044 47.11226634 -17.1084137 48.98152161 C-17.34213181 49.82978012 -17.57584991 50.67803864 -17.81665039 51.55200195 C-18.12403893 52.6625872 -18.12403893 52.6625872 -18.43763733 53.79560852 C-19.04506124 56.17663443 -19.51808682 58.59043409 -20 61 C-13.4 40.87 -6.8 20.74 0 0 Z M-32 45 C-31 48 -31 48 -31 48 Z M-33 49 C-32 51 -32 51 -32 51 Z M-35 56 C-34 58 -34 58 -34 58 Z M2 57 C1.67 59.31 1.34 61.62 1 64 C3.30671915 61.28450846 3.30671915 61.28450846 2.625 58.8125 C2.41875 58.214375 2.2125 57.61625 2 57 Z M-29 61 C-28 64 -28 64 -28 64 Z M-14 62 C-13 65 -13 65 -13 65 Z M0 64 C1 67 1 67 1 67 Z M-30 65 C-29 67 -29 67 -29 67 Z M-15 65 C-14 68 -14 68 -14 68 Z M-8 66 C-7 70 -7 70 -7 70 Z M-23 67 C-22 70 -22 70 -22 70 Z M6 67 C7 70 7 70 7 70 Z M-31 68 C-30 70 -30 70 -30 70 Z M-1 68 C0 71 0 71 0 71 Z M-16 69 C-15 71 -15 71 -15 71 Z M-9 70 C-8 73 -8 73 -8 73 Z M20 70 C19.67 72.31 19.34 74.62 19 77 C21.30671915 74.28450846 21.30671915 74.28450846 20.625 71.8125 C20.41875 71.214375 20.2125 70.61625 20 70 Z M-24 71 C-23 74 -23 74 -23 74 Z M5 71 C6 74 6 74 6 74 Z M-17 72 C-16 75 -16 75 -16 75 Z M-2 72 C-1 74 -1 74 -1 74 Z M-10 73 C-9 76 -9 76 -9 76 Z M-25 74 C-24 77 -24 77 -24 77 Z M12 74 C13 77 13 77 13 77 Z M4 75 C5 78 5 78 5 78 Z M-18 76 C-17 78 -17 78 -17 78 Z M-11 77 C-10 79 -10 79 -10 79 Z M25 77 C26 81 26 81 26 81 Z M33 77 C34 80 34 80 34 80 Z M-26 78 C-25 80 -25 80 -25 80 Z M11 78 C12 81 12 81 12 81 Z M18 78 C19 80 19 80 19 80 Z M-4 79 C-3 81 -3 81 -3 81 Z M3 79 C4 81 4 81 4 81 Z M32 80 C33 83 33 83 33 83 Z M-12 81 C-11 83 -11 83 -11 83 Z M24 81 C25 84 25 84 25 84 Z M2 82 C3 84 3 84 3 84 Z M10 82 C11 84 11 84 11 84 Z M17 82 C18 84 18 84 18 84 Z M23 85 C24 87 24 87 24 87 Z M1 86 C2 88 2 88 2 88 Z M9 86 C10 88 10 88 10 88 Z " fill="#BCBCBC" transform="translate(60,82)"/>
<path d="M0 0 C4.31431613 2.67471038 6.42221166 5.52222991 8.13476562 10.38232422 C9.17201944 14.85140315 9.34962174 18.95165058 9.37890625 23.51953125 C9.39352905 24.38561005 9.40815186 25.25168884 9.42321777 26.14401245 C9.48507405 29.8222638 9.5250858 33.50067412 9.56689453 37.17919922 C9.6006957 39.87615191 9.64577332 42.57275697 9.69140625 45.26953125 C9.69668335 46.09671661 9.70196045 46.92390198 9.70739746 47.77615356 C9.78198839 52.10147542 10.19923192 55.27380528 12.03515625 59.26171875 C12.03515625 60.25171875 12.03515625 61.24171875 12.03515625 62.26171875 C7.74515625 62.26171875 3.45515625 62.26171875 -0.96484375 62.26171875 C-1.95484375 60.28171875 -2.94484375 58.30171875 -3.96484375 56.26171875 C-4.856875 56.68324219 -5.74890625 57.10476562 -6.66796875 57.5390625 C-7.8384375 58.08691406 -9.00890625 58.63476562 -10.21484375 59.19921875 C-11.375 59.74449219 -12.53515625 60.28976563 -13.73046875 60.8515625 C-22.30341096 64.58928247 -33.72683708 64.86071808 -42.58984375 61.69921875 C-47.13377135 59.55368801 -50.2969592 56.50473809 -52.96484375 52.26171875 C-54.68721572 47.09460285 -54.62045997 42.15572117 -52.83984375 37.01171875 C-47.42269746 29.06657085 -39.54718412 26.33684174 -30.35205078 24.56591797 C-26.49899567 23.98892383 -22.6447297 23.48283316 -18.77734375 23.01171875 C-17.43018939 22.83839495 -16.08318231 22.6639224 -14.73632812 22.48828125 C-11.48042673 22.06816494 -8.22352643 21.65957931 -4.96484375 21.26171875 C-5.24893755 19.80163056 -5.54399997 18.34367336 -5.84375 16.88671875 C-6.00689697 16.07460937 -6.17004395 15.2625 -6.33813477 14.42578125 C-6.83267195 12.08563546 -6.83267195 12.08563546 -8.90234375 10.26171875 C-13.12230705 8.21567594 -16.62484519 8.06694128 -21.27734375 8.01171875 C-23.22060547 7.97304687 -23.22060547 7.97304687 -25.203125 7.93359375 C-29.2484096 8.28645347 -31.5799936 9.04645079 -34.96484375 11.26171875 C-36.48765233 13.23565085 -36.48765233 13.23565085 -37.33984375 15.44921875 C-37.87609375 16.70734375 -38.41234375 17.96546875 -38.96484375 19.26171875 C-43.25484375 18.60171875 -47.54484375 17.94171875 -51.96484375 17.26171875 C-50.88641186 10.79112743 -49.46584274 7.82117228 -44.96484375 3.26171875 C-33.13666697 -4.87913166 -12.98070504 -5.86291749 0 0 Z M-20.27734375 33.51171875 C-22.13262695 33.81916016 -22.13262695 33.81916016 -24.02539062 34.1328125 C-25.21841797 34.34550781 -26.41144531 34.55820313 -27.640625 34.77734375 C-29.27898315 35.06013184 -29.27898315 35.06013184 -30.95043945 35.34863281 C-34.42144938 36.40002806 -36.38001567 37.73531307 -38.96484375 40.26171875 C-40.19064326 44.2275407 -40.4084368 46.26363439 -38.71484375 50.07421875 C-34.00773416 53.81851047 -28.42355713 54.52945486 -22.4921875 54.0703125 C-16.91635549 53.00870469 -11.21659722 51.19965745 -7.64453125 46.5390625 C-4.77940807 41.50005216 -4.48992026 36.96080061 -4.96484375 31.26171875 C-10.07797425 31.26171875 -15.25691236 32.62530288 -20.27734375 33.51171875 Z " fill="#BCBCBC" transform="translate(508.96484375,101.73828125)"/>
<path d="M0 0 C6.48753846 5.08190513 9.82046777 11.62171482 11.796875 19.52734375 C11.796875 23.15734375 11.796875 26.78734375 11.796875 30.52734375 C-5.363125 30.85734375 -22.523125 31.18734375 -40.203125 31.52734375 C-37.173622 42.41155509 -37.173622 42.41155509 -29.015625 48.33984375 C-22.80390138 50.27464291 -16.97294007 50.60945864 -10.890625 48.02734375 C-6.53210657 45.58728069 -4.40725403 41.8932147 -2.203125 37.52734375 C-0.2444207 37.6681069 1.71383593 37.81511135 3.671875 37.96484375 C4.76242187 38.04605469 5.85296875 38.12726563 6.9765625 38.2109375 C9.796875 38.52734375 9.796875 38.52734375 11.796875 39.52734375 C10.20646591 45.88898012 6.99655047 51.21775982 1.6484375 55.078125 C-9.0287373 61.2548524 -21.76200162 62.53110321 -33.703125 59.40234375 C-41.75826537 56.49654647 -47.93645725 50.91927769 -52.203125 43.52734375 C-55.93960303 34.77477194 -55.88450819 21.7640031 -52.640625 12.83984375 C-47.97689733 3.51238841 -41.21544173 -1.74951592 -31.41015625 -5.08203125 C-20.39383195 -7.03182316 -9.39013223 -6.27673732 0 0 Z M-37.640625 12.52734375 C-39.48513281 15.72827102 -39.48513281 15.72827102 -40.203125 20.52734375 C-27.663125 20.52734375 -15.123125 20.52734375 -2.203125 20.52734375 C-3.18998434 14.60618773 -4.00622567 11.02323624 -8.82421875 7.26171875 C-19.10395548 1.19218604 -30.31899962 3.51611251 -37.640625 12.52734375 Z " fill="#BCBCBC" transform="translate(348.203125,104.47265625)"/>
<path d="M0 0 C4.62 0 9.24 0 14 0 C14.33 15.18 14.66 30.36 15 46 C25.3120265 36.40960845 25.3120265 36.40960845 35.4375 26.625 C41.18978076 21.90987289 46.79197136 22.17664196 53.88671875 22.68359375 C54.91410156 22.78800781 55.94148438 22.89242187 57 23 C55.48147523 26.83945182 53.22197262 28.67491055 50 31.1875 C45.15541952 35.03635643 40.545101 39.05763492 35.99609375 43.25 C34 45 34 45 32 46 C35.45874295 53.40439632 41.04641224 59.77536114 46.015625 66.21484375 C46.73089355 67.14433838 47.44616211 68.07383301 48.18310547 69.03149414 C49.62995909 70.90847166 51.08201298 72.78145348 52.53955078 74.65014648 C53.2148584 75.52614502 53.89016602 76.40214355 54.5859375 77.3046875 C55.49931885 78.4800708 55.49931885 78.4800708 56.43115234 79.67919922 C58.03176971 82.04699702 59.04277555 84.31489926 60 87 C54.61366968 88.12013545 49.27796451 88.95983683 44 87 C38.99956762 82.84188295 35.81784751 76.88488112 32.49169922 71.38232422 C30.2869105 67.86115756 27.76760107 64.62589021 25.1875 61.375 C24.36783859 60.32081834 23.5487552 59.26618679 22.73046875 58.2109375 C22.15941406 57.48132813 21.58835937 56.75171875 21 56 C18.22727246 57.57023165 16.82060643 58.45536123 15 61 C14.08532125 65.42701483 14.11529886 69.80389383 14.125 74.3125 C14.104375 75.53001953 14.08375 76.74753906 14.0625 78.00195312 C14.01545604 81.00100549 14.00425148 84.0005817 14 87 C9.38 87 4.76 87 0 87 C0 58.29 0 29.58 0 0 Z " fill="#BCBCBC" transform="translate(236,77)"/>
<path d="M0 0 C6.01585236 4.95308428 9.01221222 9.8530429 11.47265625 17.234375 C11.75145524 20.43767921 11.75016952 23.64526053 11.78515625 26.859375 C11.82866211 28.15681641 11.82866211 28.15681641 11.87304688 29.48046875 C11.96383166 38.79638429 8.6997171 45.73499122 2.39453125 52.51171875 C-5.47068995 59.56164263 -15.63757648 60.65085778 -25.80078125 60.48046875 C-35.90102692 59.81347139 -42.69873715 56.0629816 -49.77734375 48.984375 C-56.37805915 38.61182223 -57.4126683 27.09205364 -54.8671875 15.1328125 C-51.99507619 7.10084754 -46.90018876 1.19396006 -39.33984375 -2.703125 C-27.2084196 -8.33898347 -11.04665519 -7.71729235 0 0 Z M-37.83984375 10.234375 C-42.20450554 17.99377375 -43.48258676 26.57114443 -41.52734375 35.234375 C-39.67790764 41.72006877 -36.17686665 45.72778355 -30.33984375 49.046875 C-24.03487614 51.01071737 -18.25352865 51.34183121 -12.15234375 48.546875 C-7.00312512 45.59853208 -4.46301156 41.76142648 -2.52734375 36.234375 C-1.01829065 27.52081032 -1.10976704 19.81050234 -5.27734375 11.921875 C-8.95460186 7.52959448 -13.15188763 4.56701284 -18.9453125 3.99609375 C-26.79701218 3.78568149 -31.87547886 5.07600536 -37.83984375 10.234375 Z " fill="#BCBCBC" transform="translate(218.52734375,104.765625)"/>
<path d="M0 0 C0.7950293 0.00418945 1.59005859 0.00837891 2.40917969 0.01269531 C8.08485874 0.1221565 13.01177886 0.6818673 18.125 3.3125 C19.218125 3.869375 20.31125 4.42625 21.4375 5 C24.84553562 7.93249577 26.71069632 11.05295008 28.125 15.3125 C28.125 16.6325 28.125 17.9525 28.125 19.3125 C21.69 19.8075 21.69 19.8075 15.125 20.3125 C14.733125 19.384375 14.34125 18.45625 13.9375 17.5 C11.90171941 13.91983413 10.8012345 13.03112692 7.125 11.3125 C3.71493796 10.87662948 3.71493796 10.87662948 0.125 11 C-1.669375 11.00580078 -1.669375 11.00580078 -3.5 11.01171875 C-6.71415693 11.29816561 -8.98039759 11.93646741 -11.875 13.3125 C-12.205 15.6225 -12.535 17.9325 -12.875 20.3125 C-5.36559463 23.90870723 2.64538245 25.62521296 10.69726562 27.61914062 C19.28359208 29.83353498 24.834962 31.86726134 30.125 39.3125 C31.88114069 42.82478138 31.66907313 46.47953537 31.125 50.3125 C28.14906371 57.3633698 23.36017732 61.51863577 16.4375 64.5625 C5.99969772 68.1218047 -6.6424677 67.89152952 -16.74609375 63.43359375 C-22.95368247 60.16464336 -26.20944028 55.75521457 -28.875 49.3125 C-28.875 47.9925 -28.875 46.6725 -28.875 45.3125 C-27.27158445 44.97557215 -25.66723445 44.64308907 -24.0625 44.3125 C-23.16917969 44.126875 -22.27585937 43.94125 -21.35546875 43.75 C-18.875 43.3125 -18.875 43.3125 -15.875 43.3125 C-15.51148438 44.12654297 -15.51148438 44.12654297 -15.140625 44.95703125 C-12.59260052 50.55453495 -12.59260052 50.55453495 -7.875 54.3125 C-0.49328021 56.63667785 7.94005396 55.92520765 15.125 53.3125 C15.455 50.3425 15.785 47.3725 16.125 44.3125 C12.67324103 42.06064006 9.68109005 40.75629406 5.66796875 39.84765625 C4.63736328 39.60466797 3.60675781 39.36167969 2.54492188 39.11132812 C0.40196022 38.62317311 -1.74126659 38.13618057 -3.88476562 37.65039062 C-13.06855929 35.48175648 -20.21226622 33.20600769 -25.875 25.3125 C-28.05788295 20.9467341 -27.29093305 15.63828659 -25.875 11.125 C-19.47549 2.12568906 -10.57620099 -0.07583105 0 0 Z " fill="#BCBCBC" transform="translate(421.875,98.6875)"/>
<path d="M0 0 C3.88137041 3.30329397 6.73195911 6.26381297 7.24050903 11.45513916 C7.2338472 12.82747711 7.2338472 12.82747711 7.22705078 14.22753906 C7.22689972 15.26831604 7.22674866 16.30909302 7.22659302 17.38140869 C7.21627045 18.49820007 7.20594788 19.61499146 7.1953125 20.765625 C7.1924826 21.91415955 7.18965271 23.06269409 7.18673706 24.24603271 C7.17554263 27.91412781 7.15043904 31.5819787 7.125 35.25 C7.11496926 37.73697564 7.10584358 40.22395511 7.09765625 42.7109375 C7.07560568 48.80737498 7.04213525 54.90367004 7 61 C5.02090602 61.02686553 3.04171029 61.04633375 1.0625 61.0625 C-0.03964844 61.07410156 -1.14179687 61.08570313 -2.27734375 61.09765625 C-5 61 -5 61 -6 60 C-6.11181679 58.57898264 -6.15669848 57.15260479 -6.17358398 55.72729492 C-6.18707382 54.81932663 -6.20056366 53.91135834 -6.21446228 52.97587585 C-6.22490067 51.98739151 -6.23533905 50.99890717 -6.24609375 49.98046875 C-6.27903679 47.90559481 -6.31224836 45.83072512 -6.34570312 43.75585938 C-6.39311545 40.47065207 -6.43752437 37.18546144 -6.47680664 33.90014648 C-6.51651123 30.73923323 -6.5680677 27.57868263 -6.62109375 24.41796875 C-6.6295079 23.4355571 -6.63792206 22.45314545 -6.64659119 21.44096375 C-6.67155418 20.06482658 -6.67155418 20.06482658 -6.69702148 18.66088867 C-6.70732895 17.85560226 -6.71763641 17.05031586 -6.72825623 16.22062683 C-7.03635048 13.70295237 -7.62005111 12.12562902 -9 10 C-14.38127548 7.04557425 -18.94459372 5.94803371 -25.078125 7.5390625 C-29.21033728 8.93177108 -32.42922682 10.34159201 -35 14 C-36.76815586 19.85586252 -37.32735296 25.21879214 -37.4140625 31.3125 C-37.43342865 32.16682617 -37.4527948 33.02115234 -37.4727478 33.90136719 C-37.5320053 36.60081338 -37.57871122 39.30030349 -37.625 42 C-37.66322946 43.84246539 -37.70228399 45.68491386 -37.7421875 47.52734375 C-37.83766176 52.01808993 -37.92188873 56.50891962 -38 61 C-42.29 61 -46.58 61 -51 61 C-51 39.88 -51 18.76 -51 -3 C-47.04 -3 -43.08 -3 -39 -3 C-38.67 -1.02 -38.34 0.96 -38 3 C-37.39671875 2.57847656 -36.7934375 2.15695313 -36.171875 1.72265625 C-35.37265625 1.17480469 -34.5734375 0.62695312 -33.75 0.0625 C-32.96109375 -0.48277344 -32.1721875 -1.02804688 -31.359375 -1.58984375 C-22.84876383 -6.67648387 -8.04791447 -5.50178224 0 0 Z " fill="#BCBCBC" transform="translate(579,103)"/>
<path d="M0 0 C0 7.26 0 14.52 0 22 C3.96 22 7.92 22 12 22 C12 25.3 12 28.6 12 32 C8.04 32 4.08 32 0 32 C0.1179265 37.82086707 0.24215042 43.6415519 0.37231445 49.4621582 C0.41573144 51.44389146 0.45740137 53.42566378 0.49731445 55.4074707 C0.55485383 58.2496317 0.61859445 61.09159483 0.68359375 63.93359375 C0.70030624 64.82525742 0.71701874 65.71692108 0.73423767 66.63560486 C0.436587 70.63948395 0.436587 70.63948395 2 74 C3.68183948 74.23287008 5.3712416 74.41264166 7.0625 74.5625 C8.44115234 74.68818359 8.44115234 74.68818359 9.84765625 74.81640625 C10.55792969 74.87699219 11.26820313 74.93757813 12 75 C14 82.625 14 82.625 14 86 C6.14873782 87.00719438 -0.80805474 87.80567298 -8 84 C-10.92157211 81.66274231 -11.81576138 80.55271587 -13 77 C-13.08650584 75.51155284 -13.11770173 74.01951743 -13.11352539 72.52856445 C-13.11344986 71.62785721 -13.11337433 70.72714996 -13.11329651 69.79914856 C-13.10813522 68.83031235 -13.10297394 67.86147614 -13.09765625 66.86328125 C-13.0962413 65.86870407 -13.09482635 64.87412689 -13.09336853 63.84941101 C-13.08776761 60.67041018 -13.07521496 57.49147957 -13.0625 54.3125 C-13.05748512 52.15820414 -13.05292219 50.00390718 -13.04882812 47.84960938 C-13.03779787 42.56637916 -13.02053262 37.28320149 -13 32 C-15.97 32 -18.94 32 -22 32 C-22 28.7 -22 25.4 -22 22 C-19.03 22 -16.06 22 -13 22 C-13 16.72 -13 11.44 -13 6 C-1.125 0 -1.125 0 0 0 Z " fill="#BCBCBC" transform="translate(382,78)"/>
<path d="M0 0 C1.625 0.828125 1.625 0.828125 3.875 2.328125 C3.26801257 6.45563949 1.83689209 9.6602398 -0.125 13.328125 C-0.785 13.163125 -1.445 12.998125 -2.125 12.828125 C-6.9580594 12.0226151 -11.24279833 11.70072444 -15.9375 13.265625 C-20.18232153 17.2678853 -21.23288636 23.34206563 -21.55737305 29.02172852 C-21.59806245 30.66653881 -21.62402941 32.31176668 -21.63671875 33.95703125 C-21.65466995 34.83213852 -21.67262115 35.70724579 -21.69111633 36.60887146 C-21.74475302 39.36940877 -21.77896354 42.12977795 -21.8125 44.890625 C-21.84571438 46.77671588 -21.88020778 48.6627847 -21.91601562 50.54882812 C-22.00045188 55.14180476 -22.06748333 59.7347356 -22.125 64.328125 C-26.415 64.328125 -30.705 64.328125 -35.125 64.328125 C-35.125 43.208125 -35.125 22.088125 -35.125 0.328125 C-31.165 0.328125 -27.205 0.328125 -23.125 0.328125 C-22.795 1.978125 -22.465 3.628125 -22.125 5.328125 C-21.17625 4.52375 -20.2275 3.719375 -19.25 2.890625 C-13.87350418 -1.66770841 -6.75579428 -2.13602319 0 0 Z " fill="#BCBCBC" transform="translate(164.125,99.671875)"/>
<path d="M0 0 C0.66 0 1.32 0 2 0 C3.74750293 6.18594595 2.12944868 11.82018066 0.8125 17.9375 C0.60302734 18.99646484 0.39355469 20.05542969 0.17773438 21.14648438 C-1.08431992 27.14966846 -2.59905462 31.88037559 -6 37 C-6.66 37 -7.32 37 -8 37 C-6.58681832 28.69676785 -4.79917371 20.51095305 -2.875 12.3125 C-2.59785156 11.12205078 -2.32070312 9.93160156 -2.03515625 8.70507812 C-1.35912966 5.80282602 -0.68070429 2.90115786 0 0 Z " fill="#BCBCBC" transform="translate(111,121)"/>
<path d="M0 0 C0.66 0 1.32 0 2 0 C1.37851697 2.70918332 0.75293439 5.41731127 0.125 8.125 C-0.13603516 9.26582031 -0.13603516 9.26582031 -0.40234375 10.4296875 C-1.39798428 14.70725424 -2.52971389 18.85405809 -4 23 C-4.33 23 -4.66 23 -5 23 C-5.63840328 14.98449221 -4.04294927 8.41795264 -1 1 C-0.67 0.67 -0.34 0.34 0 0 Z " fill="#BCBCBC" transform="translate(25,106)"/>
</svg>
