<?xml version="1.0" encoding="utf-8"?>
<!-- Generator: Adobe Illustrator 28.1.0, SVG Export Plug-In . SVG Version: 6.00 Build 0)  -->
<svg version="1.1" id="Layer_1" xmlns="http://www.w3.org/2000/svg" xmlns:xlink="http://www.w3.org/1999/xlink" x="0px" y="0px"
	 viewBox="0 0 880 200" style="enable-background:new 0 0 880 200;" xml:space="preserve">
<style type="text/css">
	.st0{fill:#399144;}
</style>
<g>
	<g>
		<path class="st0" d="M30.59,61.16l3.11-17.57c0.07-0.4,0.15-0.81,0.23-1.21c-8.05,9.69-14.19,21.24-17.66,34.2
			c-3.99,14.89-4,29.91-0.69,43.94l10.69-39.91C27.99,74.2,29.43,67.71,30.59,61.16z"/>
		<path class="st0" d="M51.87,115.4L74.45,14.56c-0.54,0.18-1.08,0.37-1.62,0.56c-0.68,0.24-1.2,0.8-1.41,1.48l-30.04,95.99
			c-1.27,3.9-2.44,7.83-3.5,11.8L30.7,151.2c-0.25,0.95-0.07,1.97,0.52,2.76c2.49,3.32,5.2,6.47,8.14,9.43L49,127.37
			C50.07,123.41,51.02,119.42,51.87,115.4z"/>
		<path class="st0" d="M69.58,115.11L93.24,10.36c-0.56,0.06-1.12,0.13-1.68,0.21c-0.53,0.07-0.98,0.45-1.14,0.96L59.09,112.3
			c-1.27,3.9-2.44,7.83-3.5,11.8l-11.3,42.18c-0.23,0.86,0.05,1.77,0.72,2.35c2.78,2.36,5.72,4.57,8.81,6.59l12.9-48.14
			C67.77,123.11,68.73,119.12,69.58,115.11z"/>
		<path class="st0" d="M87.29,114.82l23.65-104.69c-0.56-0.05-1.12-0.09-1.68-0.13c-0.43-0.03-0.82,0.24-0.94,0.65L76.8,112.01
			c-1.27,3.9-2.44,7.83-3.5,11.8l-14.3,53.37c-0.16,0.61,0.11,1.27,0.66,1.57c3.08,1.7,6.29,3.24,9.61,4.59l15.15-56.55
			C85.48,122.82,86.44,118.83,87.29,114.82z"/>
		<path class="st0" d="M104.99,114.53l22.79-101.31c-0.39-0.11-0.78-0.23-1.17-0.33c-0.39-0.11-0.79-0.2-1.18-0.3L94.5,111.72
			c-1.27,3.9-2.44,7.83-3.5,11.8l-16.54,61.74c1.81,0.61,3.64,1.17,5.51,1.67c1.87,0.5,3.74,0.93,5.61,1.31l16.54-61.74
			C103.19,122.53,104.14,118.54,104.99,114.53z"/>
		<path class="st0" d="M120.18,123.63L143.57,20.1c0.09-0.42-0.11-0.85-0.49-1.03c-0.5-0.25-1.01-0.49-1.52-0.73l-31.87,102.48
			c-1.27,3.9-2.44,7.83-3.5,11.8l-15.15,56.55c3.55,0.49,7.1,0.77,10.62,0.83c0.64,0.01,1.2-0.42,1.36-1.03l14.3-53.37
			C118.38,131.64,119.33,127.65,120.18,123.63z"/>
		<path class="st0" d="M135.37,132.74L158.62,29.8c0.12-0.53-0.08-1.08-0.5-1.4c-0.45-0.34-0.9-0.68-1.35-1.02l-31.89,102.55
			c-1.27,3.9-2.44,7.83-3.5,11.8l-12.9,48.14c3.68-0.21,7.33-0.65,10.92-1.31c0.87-0.16,1.57-0.82,1.8-1.67l11.3-42.18
			C133.57,140.74,134.52,136.75,135.37,132.74z"/>
		<path class="st0" d="M150.56,141.85l21.98-98.15c0.16-0.7-0.02-1.44-0.48-1.99c-0.37-0.44-0.74-0.87-1.12-1.3l-30.87,98.63
			c-1.27,3.9-2.44,7.83-3.5,11.8l-9.65,36.02c4.02-1.1,7.95-2.47,11.76-4.1c0.9-0.39,1.57-1.18,1.83-2.13l7.18-26.81
			C148.76,149.85,149.71,145.86,150.56,141.85z"/>
		<path class="st0" d="M184.72,61.39c-0.37-0.79-0.76-1.57-1.16-2.35l-28.31,89.11c-1.27,3.9-2.44,7.83-3.5,11.8l-5.07,18.91
			c4.74-2.61,9.25-5.65,13.46-9.07c0.75-0.61,1.27-1.44,1.52-2.37l1.2-4.49c1.06-3.96,2.02-7.95,2.87-11.97l19.2-87.5
			C185.11,62.76,185.03,62.03,184.72,61.39z"/>
		<path class="st0" d="M34.16,115.7L54.2,24.37c-0.73,0.48-1.46,0.96-2.18,1.46c-0.58,0.4-1.01,1-1.23,1.67l-27.12,85.38
			c-1.27,3.9-2.44,7.83-3.5,11.8l-1.2,4.49c-0.25,0.93-0.21,1.92,0.13,2.82c1.94,5.07,4.32,9.95,7.13,14.59l5.07-18.91
			C32.36,123.7,33.31,119.71,34.16,115.7z"/>
		<path class="st0" d="M192.11,84.77c-0.14,0.39-0.27,0.78-0.41,1.16l-6.09,16.77c-2.27,6.25-4.26,12.59-5.98,19.01l-10.69,39.91
			c9.88-10.49,17.38-23.5,21.37-38.4C193.78,110.26,194.24,97.19,192.11,84.77z"/>
	</g>
	<g>
		<g>
			<path d="M356.83,58.96c-11.93,0-22.84,4.14-30.72,11.66c-7.88,7.53-12.22,17.96-12.22,29.37s4.34,21.85,12.22,29.37
				c7.87,7.52,18.78,11.66,30.72,11.66c11.95,0,22.85-4.13,30.71-11.62c7.88-7.51,12.22-17.96,12.22-29.42
				c0-11.45-4.34-21.9-12.22-29.42C379.68,63.09,368.77,58.96,356.83,58.96z M383.47,100c0,15.44-11.2,26.64-26.64,26.64
				s-26.64-11.2-26.64-26.64c0-15.44,11.2-26.64,26.64-26.64S383.47,84.56,383.47,100z"/>
			<path d="M452.07,95.91l32.34-34.43l1.32-1.4h-1.93H467.5h-0.35l-0.25,0.26l-37.21,38.61V60.91v-0.83h-0.83h-14.52h-0.83v0.83
				v78.18v0.83h0.83h14.52h0.83v-0.83v-19.65l11.52-11.83l25.44,30.18c1.14,1.35,2.82,2.13,4.59,2.13h16.32L452.07,95.91z"/>
			<path d="M511.1,126.08v-19.89h37.75V92.58H511.1V73.92h42.55V60.08h-58.73v76.84c0,1.66,1.34,3,3,3h57.3v-13.84H511.1z"/>
			<path d="M560.98,60.08v0.83v13.12h25.91v62.89c0,1.66,1.34,3,3,3h13.18V74.03h25.91V60.08H560.98z"/>
			<path d="M685.5,99.85c-5.46-3.38-12.35-5.02-19.02-6.6c-9.58-2.28-17.85-4.25-17.85-10.78c0-6.21,5.88-9.78,16.14-9.78
				c7.01,0,14.51,2.14,21.13,6.03l0.83,0.49l0.36-0.89l4.58-11.28l0.26-0.63l-0.57-0.38c-6.74-4.42-16.64-7.06-26.48-7.06
				c-10.22,0-18.63,2.46-24.32,7.13c-5.17,4.24-8.01,10.29-8.01,17.05c0,7.66,3.1,13.32,9.49,17.29c5.47,3.41,12.38,5.05,19.05,6.64
				c9.61,2.29,17.91,4.27,17.91,10.9c0,6.02-5.85,9.33-16.48,9.33c-8.99,0-18.91-3.3-25.28-8.42l-0.84-0.68l-0.44,0.99l-5.03,11.28
				l-0.25,0.57l0.47,0.4c6.75,5.82,19.07,9.58,31.37,9.58c10.22,0,18.65-2.46,24.37-7.11c5.2-4.23,8.07-10.25,8.07-16.95
				C694.98,109.4,691.88,103.79,685.5,99.85z"/>
			<path d="M747.51,60.08h-15.37l-35.93,79.84h16.81l7.71-18.09h37.99l6.57,15.2c0.76,1.76,2.49,2.9,4.41,2.9h13.87L747.51,60.08z
				 M753.19,108.77h-26.84l13.37-31.23L753.19,108.77z"/>
			<path d="M861.67,60.08h-14.41h-0.83v0.83v50.59l-41.88-51.43h-13.18v79.84h16.07V88.49l40.26,49.44
				c1.03,1.26,2.56,1.99,4.19,1.99h10.61V60.91v-0.83H861.67z"/>
			<path d="M286.67,110.09c2.18-0.72,4.22-1.65,6.07-2.78c2.35-1.43,4.41-3.19,6.11-5.24c1.7-2.05,3.06-4.45,4.03-7.11
				c0.97-2.67,1.46-5.69,1.46-8.99v-0.22c0-3.53-0.59-6.81-1.74-9.74c-1.16-2.94-2.85-5.56-5.01-7.81l-0.03-0.03
				c-2.62-2.54-5.93-4.55-9.84-5.97c-3.88-1.41-8.37-2.12-13.35-2.12H232.9v79.84h16.09v-26.96h20.8l17.27,24.42
				c1.12,1.59,2.95,2.54,4.9,2.54h15.99L286.67,110.09z M248.99,74.84h24.22c4.79,0,8.52,1.01,11.09,3.01
				c2.51,1.95,3.73,4.77,3.73,8.61v0.22c0,3.63-1.26,6.42-3.86,8.52c-2.64,2.13-6.29,3.22-10.85,3.22h-24.33V74.84z"/>
		</g>
	</g>
</g>
</svg>
