<?xml version="1.0"?>
<svg xmlns="http://www.w3.org/2000/svg" width="243.89999" height="123.2" viewBox="0 0 64.531872 32.596667">
<g transform="translate(-115.90073,-46.356421)">
 <g transform="matrix(0.26458333,0,0,0.26458333,115.71552,45.933088)">
  <polyline points="189.8,55.4 219.5,34.6 207.9,68.8 204.7,78.8 200.5,90.2 188.6,124.3" style="fill:#EC1C24" />
  <polyline points="187.8,41.9 153.8,30.1 188.1,19.2 198.1,16 209.7,12.6 244.1,2.1" style="fill:#2E3191" />
  <g style="fill:#929497">
   <path d="m 56.9,52.3 -0.7,4 c -0.1,0.3 -0.4,0.6 -0.7,0.6 h -4.6 l -3,17.3 c -0.1,0.3 -0.4,0.6 -0.7,0.6 h -5.1 c -0.3,0 -0.5,-0.2 -0.5,-0.5 0,-0.1 0,-0.1 0,-0.1 l 3,-17.3 h -4.7 c -0.3,0 -0.5,-0.2 -0.5,-0.5 v -0.1 l 0.7,-4 c 0.1,-0.3 0.4,-0.6 0.7,-0.6 h 15.6 c 0.3,0 0.5,0.3 0.5,0.6 z" />
   <path d="M 78.3,52.5 75.9,66 c -1.3,7.3 -4.9,9 -11,9 -3.6,0 -7.9,-2.1 -7.9,-7.4 0,-0.6 0.1,-1.2 0.2,-2 l 2.4,-13.4 c 0.1,-0.3 0.3,-0.6 0.8,-0.6 h 5 c 0.4,0 0.6,0.2 0.5,0.6 l -2.4,13.7 c -0.1,0.6 -0.2,1.1 -0.2,1.5 0,1.7 0.8,2.2 2.6,2.2 2.2,0 3.3,-0.9 3.8,-3.7 l 2.4,-13.7 c 0.1,-0.3 0.4,-0.6 0.7,-0.6 h 4.9 c 0.5,0.1 0.7,0.4 0.6,0.9 z" />
   <path d="m 94.3,65.5 3,8.4 c 0,0.1 0,0.2 0,0.2 0,0.3 -0.2,0.6 -0.6,0.6 h -5.5 c -0.3,0 -0.4,-0.3 -0.5,-0.6 l -2.6,-7.6 c -0.7,0 -1.3,0 -2,-0.1 L 84.8,74 c -0.1,0.3 -0.4,0.6 -0.7,0.6 h -5 c -0.3,0 -0.5,-0.2 -0.5,-0.5 V 74 l 3.6,-20.3 c 0.2,-1.5 0.8,-1.8 2.1,-2 1.3,-0.2 3.8,-0.4 6.5,-0.4 4.9,0 8.7,1.8 8.7,6.1 -0.1,3.6 -1.7,6.8 -5.2,8.1 z m -4,-8.8 c -0.8,0 -1.9,0 -2.4,0.1 L 87,61.7 c 0.3,0 0.7,0 1.1,0 0.4,0 0.8,0 1.2,0 2.5,0 3.8,-0.9 3.8,-3.4 -0.1,-1.1 -0.9,-1.6 -2.8,-1.6 z" />
   <path d="m 123.5,52.4 -8.7,10.8 4.8,10.9 c 0,0.1 0.1,0.2 0.1,0.2 0,0.2 -0.2,0.4 -0.5,0.4 h -6.1 c -0.4,0 -0.5,-0.2 -0.6,-0.5 l -3.9,-10.1 -1.7,10.1 c -0.1,0.3 -0.4,0.6 -0.7,0.6 h -5.1 c -0.3,0 -0.5,-0.2 -0.5,-0.5 v -0.1 l 3.8,-21.8 c 0.1,-0.3 0.4,-0.6 0.7,-0.6 h 5.1 c 0.3,0 0.5,0.2 0.5,0.5 v 0.1 l -1.7,9.7 7.5,-9.8 c 0.2,-0.3 0.4,-0.5 0.8,-0.5 h 6.1 c 0.2,0 0.4,0.1 0.4,0.3 -0.1,0 -0.2,0.2 -0.3,0.3 z" />
   <path d="m 132.7,52.3 -3.8,21.8 c -0.1,0.3 -0.3,0.6 -0.7,0.6 h -5.1 c -0.4,0 -0.6,-0.3 -0.5,-0.6 l 3.8,-21.8 c 0.1,-0.3 0.4,-0.6 0.7,-0.6 h 5.1 c 0.4,0 0.6,0.2 0.5,0.6 z" />
   <path d="m 151.6,52.8 -0.7,3.9 c -0.1,0.3 -0.3,0.6 -0.6,0.6 0,0 0,0 -0.1,0 -1.2,-0.1 -4.7,-0.4 -7,-0.4 -0.9,0 -1.8,0.3 -1.8,1.3 0,0.4 0.3,0.7 1.4,1.3 l 3.8,2.2 c 2.2,1.3 3.1,3 3.1,5.2 0,5.8 -4.9,8.2 -10.1,8.2 -2.5,0 -4.5,-0.3 -6.1,-0.8 -0.3,-0.1 -0.5,-0.2 -0.5,-0.5 v -0.1 l 0.6,-3.8 c 0.1,-0.3 0.3,-0.6 0.7,-0.6 0,0 0,0 0.1,0 1.3,0.1 4.6,0.5 6.2,0.5 1.2,0 2.3,-0.4 2.3,-1.8 0,-0.5 -0.3,-0.8 -1.2,-1.4 l -4,-2.6 c -1.8,-1.2 -2.7,-3.2 -2.7,-5.1 0,-5.6 4.4,-7.3 9.3,-7.3 2.5,0 5.7,0.4 6.9,0.8 0.2,-0.1 0.4,0 0.4,0.4 0,-0.1 0,0 0,0 z" />
   <path d="m 174.7,52.3 -3.8,21.8 c -0.1,0.3 -0.4,0.6 -0.7,0.6 h -5.1 c -0.3,0 -0.5,-0.2 -0.5,-0.5 0,-0.1 0,-0.1 0,-0.1 l 1.5,-8.4 h -6.5 l -1.5,8.4 c -0.1,0.3 -0.4,0.6 -0.7,0.6 h -5.2 c -0.3,0 -0.5,-0.2 -0.5,-0.5 v -0.1 l 3.8,-21.8 c 0.1,-0.3 0.4,-0.6 0.7,-0.6 h 5.1 c 0.3,0 0.5,0.2 0.5,0.5 v 0.1 l -1.4,7.9 h 6.5 l 1.4,-7.9 c 0.1,-0.3 0.4,-0.6 0.7,-0.6 h 5.1 c 0.4,0 0.6,0.2 0.6,0.6 z" />
   <path d="m 19.5,105.1 h -3.2 c -0.4,0 -0.5,-0.3 -0.5,-0.5 L 15.5,98.7 H 8.3 l -2.5,5.9 c -0.1,0.3 -0.3,0.5 -0.7,0.5 H 1.7 c -0.3,0 -0.5,-0.2 -0.5,-0.4 0,-0.1 0,-0.2 0.1,-0.3 L 9.8,85 c 1.3,-2.9 3.2,-3.2 4.9,-3.2 1.6,0 3.5,0.6 3.8,3.2 l 1.7,19.4 c 0,0 0,0 0,0.1 -0.1,0.3 -0.2,0.6 -0.7,0.6 z M 14.6,85.9 c 0,-0.4 -0.1,-0.5 -0.4,-0.5 -0.3,0 -0.4,0.1 -0.6,0.5 l -3.8,9.2 h 5.4 z" />
   <path d="m 39.4,82.2 c 0.5,0.1 0.6,0.2 0.5,0.7 l -0.3,2 c -0.1,0.3 -0.2,0.6 -0.7,0.6 h -6.3 c -1.8,0 -2.5,0.6 -2.9,2.7 l -0.6,3.3 h 8.4 c 0.3,0 0.6,0.1 0.5,0.6 l -0.4,2.2 c -0.1,0.3 -0.2,0.6 -0.7,0.6 h -8.4 l -0.7,4 c -0.1,0.4 -0.1,0.7 -0.1,1 0,1.2 0.6,1.6 2.1,1.6 h 6.3 c 0.3,0 0.6,0.2 0.5,0.6 l -0.3,2 c -0.1,0.4 -0.3,0.6 -0.7,0.7 -1,0.2 -2.3,0.4 -6,0.4 -3.5,0 -6.2,-1.4 -6.2,-4.9 0,-0.5 0,-0.9 0.1,-1.5 L 25.4,88 c 1,-5.6 4,-6.4 8.3,-6.4 3.6,0.2 4.8,0.5 5.7,0.6 z" />
   <path d="m 53.7,95.4 3.3,9.1 c 0.2,0.4 -0.1,0.6 -0.4,0.6 H 53 c -0.3,0 -0.5,-0.3 -0.6,-0.6 l -2.9,-8.3 h -0.6 c -0.8,0 -1.7,-0.1 -2.8,-0.1 l -1.5,8.4 c -0.1,0.3 -0.2,0.6 -0.7,0.6 h -3.1 c -0.4,0 -0.6,-0.2 -0.5,-0.6 l 3.8,-21.3 c 0.1,-0.6 0.5,-0.8 1.1,-0.9 1.6,-0.2 3.9,-0.4 6.1,-0.4 4.7,0 7.8,1.8 7.8,6 0.1,3.2 -1.8,6.4 -5.4,7.5 z m -3,-9.9 c -0.6,0 -2.2,0.1 -2.8,0.1 l -1.2,7 c 0.5,0 2.2,0.1 2.8,0.1 3.2,0 5.4,-1.2 5.4,-4.7 0,-1.9 -1.5,-2.5 -4.2,-2.5 z" />
   <path d="m 79.3,91.5 -0.7,4.2 c -1.2,7.2 -5.1,9.7 -10.5,9.7 -4.4,0 -7.4,-2.5 -7.4,-7.3 0,-0.7 0.1,-1.5 0.2,-2.4 l 0.7,-4.2 c 1.2,-7.3 5.1,-9.7 10.5,-9.7 4.4,0 7.4,2.6 7.4,7.4 0,0.7 -0.1,1.5 -0.2,2.3 z m -7.8,-6 c -3.2,0 -4.8,1.7 -5.6,5.9 l -0.7,4.2 C 65,96.5 65,97.3 65,97.9 c 0,2.7 1.2,3.6 3.7,3.6 3.3,0 4.9,-1.9 5.6,-5.9 L 75,91.4 c 0.2,-0.9 0.2,-1.6 0.2,-2.3 -0.1,-2.6 -1.3,-3.6 -3.7,-3.6 z" />
   <path d="m 97.6,82.3 c 0.3,0.1 0.5,0.2 0.5,0.6 l -0.4,2.3 c -0.1,0.4 -0.1,0.6 -0.7,0.6 -2,-0.2 -3.8,-0.3 -6.1,-0.3 -1.7,0 -3.7,0.5 -3.7,2.3 0,1.1 0.5,1.7 2.1,2.6 l 3.4,2.1 c 2.5,1.6 3.3,3.3 3.3,5.6 0,5.1 -4.3,7.2 -9.4,7.2 -2.3,0 -4,-0.2 -5.4,-0.6 -0.3,-0.1 -0.6,-0.2 -0.5,-0.6 l 0.4,-2.2 c 0.1,-0.3 0.2,-0.7 0.7,-0.6 1.2,0.2 4.3,0.3 5.5,0.3 2.2,0 4.1,-0.7 4.1,-2.9 0,-1.1 -0.5,-1.9 -2.1,-2.9 l -3.7,-2.5 c -2.1,-1.4 -2.7,-3.5 -2.7,-5.2 0,-5 4.4,-6.3 8.8,-6.3 2.1,0 4.9,0.3 5.9,0.5 z" />
   <path d="m 103.6,82.2 c 1.6,-0.2 3.9,-0.4 6.1,-0.4 5.3,0 7.8,2.1 7.8,6.3 0,4.8 -3.2,8.4 -10.4,8.4 -0.8,0 -2,-0.1 -2.7,-0.1 l -1.4,8.1 c -0.1,0.3 -0.2,0.6 -0.7,0.6 h -3.1 c -0.5,0 -0.6,-0.3 -0.5,-0.6 l 3.8,-21.3 c 0,-0.7 0.4,-0.9 1.1,-1 z m 1.4,10.7 c 0.5,0 2.2,0.1 2.8,0.1 3.8,0 5.5,-2 5.5,-4.9 0,-2.1 -1.3,-2.7 -4.2,-2.7 -0.6,0 -2.2,0.1 -2.8,0.1 z" />
   <path d="m 132.8,105.1 h -3.2 c -0.4,0 -0.5,-0.3 -0.5,-0.5 l -0.4,-5.9 h -7.1 l -2.5,5.9 c -0.1,0.3 -0.3,0.5 -0.7,0.5 H 115 c -0.3,0 -0.5,-0.2 -0.5,-0.4 0,-0.1 0,-0.2 0.1,-0.3 L 123.1,85 c 1.3,-2.9 3.2,-3.2 4.9,-3.2 1.6,0 3.5,0.6 3.8,3.2 l 1.7,19.4 c 0,0 0,0 0,0.1 -0.1,0.3 -0.2,0.6 -0.7,0.6 z m -4.9,-19.2 c 0,-0.4 -0.1,-0.5 -0.4,-0.5 -0.3,0 -0.4,0.1 -0.6,0.5 l -3.8,9.2 h 5.5 z" />
   <path d="m 152.7,82.3 c 0.5,0.1 0.6,0.3 0.6,0.7 l -0.4,2.1 c -0.1,0.4 -0.1,0.7 -0.8,0.7 -1.1,-0.1 -3.2,-0.3 -4.8,-0.3 -3,0 -4.8,1.6 -5.5,5.8 l -0.8,4.6 c -0.1,0.8 -0.2,1.5 -0.2,2 0,2.9 1.3,3.8 3.7,3.8 1.6,0 3.8,-0.2 4.9,-0.2 0.6,-0.1 0.6,0.2 0.6,0.7 l -0.4,2.1 c -0.1,0.4 -0.4,0.6 -0.8,0.7 -0.5,0.1 -2.6,0.5 -5,0.5 -3.7,0 -7.3,-1.8 -7.3,-7.2 0,-0.7 0.1,-1.5 0.2,-2.3 l 0.8,-4.6 c 1.4,-8.3 6,-9.5 10.5,-9.5 2.3,-0.1 4.3,0.3 4.7,0.4 z" />
   <path d="m 170.3,82.2 c 0.5,0.1 0.6,0.2 0.5,0.7 l -0.3,2 c -0.1,0.3 -0.2,0.6 -0.7,0.6 h -6.3 c -1.8,0 -2.5,0.6 -2.9,2.7 l -0.6,3.3 h 8.4 c 0.3,0 0.6,0.1 0.5,0.6 l -0.4,2.2 c -0.1,0.3 -0.2,0.6 -0.7,0.6 h -8.4 l -0.7,4 c -0.1,0.4 -0.1,0.7 -0.1,1 0,1.2 0.6,1.6 2.1,1.6 h 6.3 c 0.3,0 0.6,0.2 0.5,0.6 l -0.3,2 c -0.1,0.4 -0.3,0.6 -0.7,0.7 -1,0.2 -2.3,0.4 -6,0.4 -3.5,0 -6.2,-1.4 -6.2,-4.9 0,-0.5 0,-0.9 0.1,-1.5 L 156.3,88 c 1,-5.6 4,-6.4 8.3,-6.4 3.6,0.2 4.8,0.5 5.7,0.6 z" />
  </g>
 </g>
</g>
</svg>