<svg version="1.1" id="Layer_1" xmlns="http://www.w3.org/2000/svg" xmlns:xlink="http://www.w3.org/1999/xlink" x="0px" y="0px"
	 width="100%" viewBox="0 0 940 1280" enable-background="new 0 0 940 1280" xml:space="preserve">
<path fill="#FEFEFE" opacity="1.000000" stroke="none" 
	d="
M941.000000,375.000000 
	C941.000000,677.333313 941.000000,979.166687 941.000000,1281.000000 
	C627.666687,1281.000000 314.333344,1281.000000 1.000000,1281.000000 
	C1.000000,854.333313 1.000000,427.666656 1.000000,1.000000 
	C314.333344,1.000000 627.666687,1.000000 941.000000,1.000000 
	C941.000000,125.500000 941.000000,250.000000 941.000000,375.000000 
M31.053406,620.397400 
	C31.929491,624.466125 32.757660,628.545898 33.688797,632.601990 
	C49.394154,701.015259 83.595085,759.193115 132.225845,809.148804 
	C181.737701,860.009521 240.456497,897.843018 303.957520,928.679688 
	C355.307831,953.615723 408.792450,973.032776 463.310181,989.708984 
	C465.507416,990.381104 468.314545,990.323059 470.496338,989.589905 
	C497.627686,980.473633 524.947266,971.839111 551.732666,961.786438 
	C629.689270,932.528687 703.065857,894.927002 767.105713,840.811340 
	C808.749084,805.621460 843.583862,764.849609 868.872925,716.295959 
	C897.554260,661.229553 909.889038,602.270996 909.952942,540.565063 
	C910.100281,398.411316 910.001404,256.257294 910.002380,114.103386 
	C910.002380,112.313026 910.002380,110.522675 910.002380,108.593719 
	C908.252136,108.228355 906.981201,107.929329 905.697815,107.699974 
	C855.575989,98.742500 805.449646,89.810577 755.331238,80.834015 
	C705.224182,71.859497 655.122803,62.852863 605.022949,53.838120 
	C568.669800,47.296906 532.349731,40.567326 495.961029,34.231270 
	C480.857880,31.601496 465.763367,26.776407 450.217560,31.927530 
	C448.962524,32.343384 447.622284,32.516186 446.312408,32.750458 
	C363.768219,47.514008 281.219849,62.254124 198.679123,77.037117 
	C141.845520,87.215973 85.033424,97.516037 28.172144,107.537415 
	C23.966619,108.278603 23.279440,109.891472 23.281778,113.662781 
	C23.369976,255.816620 23.328421,397.970551 23.386082,540.124451 
	C23.396912,566.822327 25.684696,593.336060 31.053406,620.397400 
M380.686096,1227.759033 
	C371.414062,1213.159424 362.171356,1198.541138 352.823517,1183.990234 
	C351.917450,1182.579956 350.453918,1180.709839 349.088623,1180.564819 
	C344.872467,1180.117188 340.578613,1180.401489 336.255005,1180.401489 
	C336.255005,1208.021484 336.255005,1234.953979 336.255005,1261.942627 
	C341.165344,1261.942627 345.854797,1261.942627 350.948303,1261.942627 
	C350.948303,1243.116089 350.948303,1224.745117 350.948303,1205.019165 
	C352.322571,1206.982422 352.978210,1207.843872 353.555573,1208.754883 
	C364.066376,1225.340454 374.535522,1241.952637 385.124054,1258.488281 
	C386.110992,1260.029419 387.724304,1262.008423 389.249146,1262.203857 
	C393.310089,1262.723877 397.481598,1262.380615 401.622406,1262.380615 
	C401.622406,1234.816040 401.622406,1207.778320 401.622406,1180.727539 
	C396.695526,1180.727539 392.131042,1180.727539 386.920380,1180.727539 
	C386.920380,1199.502930 386.920380,1217.913208 386.920380,1237.523438 
	C384.468567,1233.698853 382.763580,1231.039185 380.686096,1227.759033 
M520.861633,1096.635376 
	C520.861633,1094.151855 520.861633,1091.668457 520.861633,1089.184937 
	C533.021362,1106.551636 544.031311,1123.987549 555.133728,1141.364502 
	C556.145874,1142.948608 557.621094,1145.150757 559.106018,1145.344482 
	C563.279419,1145.889404 567.570374,1145.534790 571.819580,1145.534790 
	C571.819580,1117.870361 571.819580,1090.950562 571.819580,1063.869141 
	C567.006104,1063.869141 562.434204,1063.869141 557.158691,1063.869141 
	C557.158691,1082.442505 557.158691,1100.713379 557.158691,1118.984375 
	C555.283508,1117.803467 554.336182,1116.490967 553.469360,1115.127319 
	C543.291626,1099.117188 533.153076,1083.082031 522.909424,1067.114258 
	C522.012085,1065.715576 520.535339,1063.882568 519.171387,1063.739258 
	C514.970703,1063.297729 510.694214,1063.578369 506.490356,1063.578369 
	C506.490356,1091.285034 506.490356,1118.180054 506.490356,1145.298828 
	C511.374512,1145.298828 515.940063,1145.298828 520.847961,1145.298828 
	C520.847961,1129.184814 520.847961,1113.392212 520.861633,1096.635376 
M662.800781,1244.542114 
	C663.499023,1256.483643 668.265076,1262.265747 680.044739,1263.048950 
	C690.968994,1263.775391 702.013306,1263.534302 712.954956,1262.883545 
	C721.036560,1262.403076 726.868164,1257.242065 727.480713,1249.453979 
	C728.308838,1238.925415 727.686523,1228.282837 727.686523,1217.574951 
	C715.727844,1217.574951 703.864929,1217.574951 692.016968,1217.574951 
	C692.016968,1221.803589 692.016968,1225.683472 692.016968,1230.006226 
	C699.374878,1230.006226 706.305481,1230.006226 713.649292,1230.006226 
	C713.649292,1234.406006 713.886902,1238.380981 713.593872,1242.316406 
	C713.150024,1248.277222 710.703674,1250.691650 704.723145,1250.925537 
	C698.569397,1251.166260 692.390137,1251.167236 686.237427,1250.907715 
	C680.261719,1250.656006 677.449951,1248.164917 677.342163,1242.317505 
	C677.084473,1228.330811 677.080566,1214.331299 677.383789,1200.345947 
	C677.511108,1194.475464 680.364685,1192.194946 686.419006,1191.967773 
	C691.077698,1191.793091 695.746582,1191.871338 700.410950,1191.871948 
	C711.069336,1191.873169 711.988525,1192.593872 714.268616,1202.867432 
	C718.791138,1202.275513 723.337891,1201.680542 727.782349,1201.098999 
	C728.910522,1187.604370 722.995972,1180.203613 709.991516,1179.370361 
	C701.030945,1178.796387 692.006226,1179.000122 683.015869,1179.165405 
	C669.407410,1179.415405 662.954651,1185.935059 662.801819,1199.655151 
	C662.638489,1214.312988 662.765442,1228.974243 662.800781,1244.542114 
M431.984619,1181.342041 
	C426.157745,1184.112549 422.961243,1188.890869 422.859802,1195.166138 
	C422.580017,1212.472290 422.246399,1229.796631 422.765656,1247.088989 
	C423.056366,1256.769653 428.906494,1262.393188 438.785126,1262.994629 
	C449.557587,1263.650269 460.418945,1263.555786 471.206512,1263.046265 
	C481.148102,1262.576660 487.265137,1256.846313 487.584839,1246.942261 
	C488.138031,1229.805908 488.042725,1212.628052 487.545807,1195.487183 
	C487.303192,1187.117676 482.570648,1181.387207 474.838989,1180.306763 
	C460.828766,1178.348999 446.680817,1177.716675 431.984619,1181.342041 
M198.434982,1143.827637 
	C199.280151,1144.426880 200.126892,1145.549927 200.970261,1145.547485 
	C215.603561,1145.503540 230.256485,1145.734741 244.862549,1145.026978 
	C254.980194,1144.536987 260.887665,1138.423096 261.195953,1128.312500 
	C261.672302,1112.691528 261.733459,1097.032104 261.204437,1081.414795 
	C260.814697,1069.908691 254.650192,1064.118896 243.095551,1063.774902 
	C229.298828,1063.364136 215.482620,1063.600708 201.674805,1063.582275 
	C200.722534,1063.581055 199.769974,1063.793335 198.398743,1063.956177 
	C198.398743,1090.433105 198.398743,1116.681274 198.434982,1143.827637 
M593.107361,1074.887939 
	C592.760498,1079.353027 592.149719,1083.816162 592.116028,1088.283569 
	C592.011780,1102.097534 596.414856,1107.091187 610.160339,1109.187622 
	C618.544189,1110.466309 626.957764,1111.575439 635.305969,1113.054443 
	C641.873962,1114.218018 643.484375,1117.084839 642.877625,1125.260010 
	C642.426208,1131.341919 639.990540,1133.766113 633.643250,1134.030396 
	C628.988403,1134.224243 624.320923,1134.155518 619.659302,1134.138794 
	C608.902588,1134.100220 608.117249,1133.486450 605.618042,1123.195190 
	C601.731995,1123.574341 597.769592,1123.814087 593.874390,1124.459595 
	C593.051636,1124.596191 591.971252,1126.165039 591.864075,1127.165527 
	C590.894287,1136.213867 596.503418,1144.963135 605.531250,1145.665405 
	C618.231079,1146.653442 631.105713,1146.513306 643.827820,1145.675171 
	C651.432800,1145.174194 656.261169,1139.187378 656.955261,1131.479370 
	C657.489624,1125.544678 657.408997,1119.511108 657.064880,1113.552734 
	C656.714355,1107.483643 653.132751,1103.356323 647.473877,1101.378052 
	C644.204590,1100.235352 640.728333,1099.601440 637.297363,1099.021729 
	C629.429016,1097.692261 621.477417,1096.803711 613.662720,1095.225708 
	C607.370728,1093.955078 606.367981,1091.774048 606.873779,1083.606812 
	C607.206177,1078.239258 609.391602,1075.540039 614.817932,1075.237549 
	C621.453064,1074.867676 628.134888,1074.941162 634.777527,1075.242554 
	C639.071838,1075.437500 641.846252,1077.860352 642.207031,1082.479980 
	C642.292175,1083.571045 642.652100,1084.640625 642.944458,1085.992188 
	C645.525330,1085.673584 647.820496,1085.392944 650.114929,1085.106445 
	C652.357727,1084.826416 654.599854,1084.540527 656.731873,1084.271240 
	C657.490112,1071.209106 652.326477,1063.728027 640.704041,1062.854980 
	C629.800171,1062.035767 618.763977,1062.454712 607.814514,1062.954102 
	C600.768311,1063.275513 595.699585,1067.198853 593.107361,1074.887939 
M857.899719,1206.382812 
	C858.129822,1218.832764 862.568909,1223.932739 875.152893,1225.963257 
	C883.853760,1227.367432 892.617310,1228.411011 901.282043,1230.001587 
	C907.615967,1231.164429 909.191223,1234.108887 908.590820,1241.884399 
	C908.113037,1248.071533 905.742126,1250.596191 899.573853,1250.917114 
	C894.922791,1251.159180 890.251343,1251.046265 885.589172,1251.029907 
	C874.729065,1250.991699 873.825073,1250.291260 871.246582,1239.957153 
	C867.507690,1240.363159 863.695190,1240.599243 859.969788,1241.299316 
	C858.963318,1241.488403 857.555786,1243.020996 857.460815,1244.041870 
	C856.579956,1253.511230 862.663391,1262.046387 872.226257,1262.738159 
	C884.131042,1263.599487 896.178955,1263.536621 908.098206,1262.796387 
	C916.950623,1262.246460 922.166077,1256.145020 922.870911,1247.307983 
	C923.293091,1242.014404 923.244995,1236.648804 922.950684,1231.340942 
	C922.568909,1224.455933 918.800720,1219.907959 912.185303,1217.905396 
	C909.489868,1217.089355 906.724976,1216.430176 903.946533,1215.974609 
	C895.746521,1214.629395 887.474304,1213.675171 879.326599,1212.077148 
	C873.205933,1210.876465 871.895630,1208.274902 872.485168,1200.934326 
	C872.966797,1194.937256 875.288818,1192.355347 881.062378,1192.003052 
	C885.376953,1191.739868 889.717468,1191.878052 894.046387,1191.879272 
	C905.513672,1191.882324 905.580078,1191.939087 908.979065,1202.850098 
	C913.478943,1202.248535 918.022400,1201.641235 922.453552,1201.048828 
	C923.394653,1188.357300 918.162048,1180.720093 906.345764,1179.728760 
	C895.296082,1178.801758 884.042175,1179.036133 872.977234,1179.953491 
	C863.640015,1180.727783 858.689697,1187.027954 858.045044,1196.432617 
	C857.840393,1199.417847 857.939514,1202.423828 857.899719,1206.382812 
M580.640015,1255.717163 
	C583.618713,1260.542358 588.339172,1262.803589 593.616577,1263.024048 
	C604.084351,1263.461182 614.613708,1263.831055 625.052673,1263.182251 
	C637.479248,1262.410034 642.855469,1256.192993 642.982239,1243.776611 
	C643.133545,1228.952393 643.130859,1214.124878 643.002930,1199.300293 
	C642.889832,1186.190308 636.507080,1179.621094 623.389221,1179.195923 
	C615.068970,1178.926270 606.727600,1178.937622 598.405762,1179.175293 
	C583.637024,1179.597168 577.606812,1185.843506 577.526245,1200.576538 
	C577.450684,1214.402222 577.298462,1228.234131 577.636047,1242.052002 
	C577.742737,1246.418091 579.319153,1250.748047 580.640015,1255.717163 
M313.611603,1262.207275 
	C313.929901,1260.651367 314.521301,1259.096313 314.525665,1257.539551 
	C314.594360,1233.040771 314.592926,1208.541992 314.580444,1184.043091 
	C314.579865,1182.931885 314.322510,1181.820801 314.186920,1180.727295 
	C309.335297,1180.727295 304.787537,1180.727295 299.833862,1180.727295 
	C299.833862,1192.062012 299.833862,1203.003784 299.833862,1214.048584 
	C287.675446,1214.048584 275.940155,1214.048584 263.526672,1214.048584 
	C263.526672,1202.701782 263.526672,1191.656860 263.526672,1180.607910 
	C258.401917,1180.607910 253.961029,1180.607910 249.366379,1180.607910 
	C249.366379,1207.928467 249.366379,1234.970337 249.366379,1262.030762 
	C254.253159,1262.030762 258.826996,1262.030762 263.881714,1262.030762 
	C263.881714,1250.211426 263.881714,1238.787109 263.881714,1227.239746 
	C276.109222,1227.239746 287.840607,1227.239746 299.980103,1227.239746 
	C299.980103,1238.969116 299.980103,1250.412109 299.980103,1262.372925 
	C304.500427,1262.372925 308.629761,1262.372925 313.611603,1262.207275 
M832.409546,1213.962769 
	C821.666077,1213.962769 810.922546,1213.962769 800.308350,1213.962769 
	C800.308350,1206.528198 800.308350,1199.930786 800.308350,1192.835815 
	C814.650146,1192.835815 828.714905,1192.835815 842.665527,1192.835815 
	C842.665527,1188.433716 842.665527,1184.546631 842.665527,1180.745361 
	C823.359924,1180.745361 804.459839,1180.745361 785.601807,1180.745361 
	C785.601807,1208.057251 785.601807,1234.973633 785.601807,1262.153076 
	C804.792419,1262.153076 823.712952,1262.153076 842.737793,1262.153076 
	C842.737793,1258.001953 842.737793,1254.103027 842.737793,1249.678711 
	C828.360657,1249.678711 814.301208,1249.678711 800.328735,1249.678711 
	C800.328735,1241.709717 800.328735,1234.275146 800.328735,1226.318115 
	C813.044312,1226.318115 825.454346,1226.318115 837.948120,1226.318115 
	C837.948120,1222.015137 837.948120,1218.246460 837.948120,1214.186401 
	C836.298706,1214.110107 834.843445,1214.042603 832.409546,1213.962769 
M282.057068,1099.500000 
	C282.057068,1114.741821 282.057068,1129.983643 282.057068,1145.262451 
	C301.715485,1145.262451 320.618530,1145.262451 339.433258,1145.262451 
	C339.433258,1140.983765 339.433258,1137.092529 339.433258,1132.829590 
	C325.084869,1132.829590 311.145691,1132.829590 297.167786,1132.829590 
	C297.167786,1124.916260 297.167786,1117.395386 297.167786,1109.523438 
	C309.896790,1109.523438 322.179199,1109.523438 334.680908,1109.523438 
	C334.680908,1105.257324 334.680908,1101.358887 334.680908,1097.006592 
	C322.011230,1097.006592 309.600372,1097.006592 297.086487,1097.006592 
	C297.086487,1089.841919 297.086487,1083.137451 297.086487,1075.850952 
	C311.493988,1075.850952 325.543365,1075.850952 339.534973,1075.850952 
	C339.534973,1071.508789 339.534973,1067.759277 339.534973,1063.828857 
	C320.306885,1063.828857 301.392487,1063.828857 282.057098,1063.828857 
	C282.057098,1075.568604 282.057098,1087.034302 282.057068,1099.500000 
M700.547485,1132.985229 
	C697.778992,1132.985229 695.010437,1132.985229 692.193481,1132.985229 
	C692.193481,1124.921387 692.193481,1117.507812 692.193481,1109.625977 
	C704.867126,1109.625977 717.272583,1109.625977 729.809937,1109.625977 
	C729.809937,1105.244995 729.809937,1101.341064 729.809937,1096.992554 
	C717.137695,1096.992554 704.739258,1096.992554 692.256836,1096.992554 
	C692.256836,1089.832642 692.256836,1083.125488 692.256836,1075.902588 
	C706.639404,1075.902588 720.687866,1075.902588 734.812500,1075.902588 
	C734.812500,1071.598511 734.812500,1067.818115 734.812500,1063.969360 
	C715.593201,1063.969360 696.569519,1063.969360 677.561401,1063.969360 
	C677.561401,1091.282104 677.561401,1118.174072 677.561401,1145.353760 
	C696.771667,1145.353760 715.661133,1145.353760 734.702454,1145.353760 
	C734.702454,1141.155640 734.702454,1137.262939 734.702454,1132.985107 
	C723.446960,1132.985107 712.492310,1132.985107 700.547485,1132.985229 
M91.427765,1187.684937 
	C91.427765,1212.426758 91.427765,1237.168579 91.427765,1262.098633 
	C110.982483,1262.098633 129.863052,1262.098633 148.741409,1262.098633 
	C148.741409,1257.882324 148.741409,1253.980469 148.741409,1249.597412 
	C134.345657,1249.597412 120.295692,1249.597412 106.409637,1249.597412 
	C106.409637,1241.682373 106.409637,1234.261108 106.409637,1226.278076 
	C119.136711,1226.278076 131.521606,1226.278076 143.957550,1226.278076 
	C143.957550,1221.935669 143.957550,1218.171021 143.957550,1213.929443 
	C131.348648,1213.929443 118.949432,1213.929443 106.363388,1213.929443 
	C106.363388,1206.732422 106.363388,1200.019531 106.363388,1192.807373 
	C120.730827,1192.807373 134.787949,1192.807373 148.692871,1192.807373 
	C148.692871,1188.409180 148.692871,1184.519165 148.692871,1180.626465 
	C129.557159,1180.626465 110.818077,1180.626465 91.429779,1180.626465 
	C91.429779,1182.846069 91.429779,1184.794800 91.427765,1187.684937 
M446.018097,1096.286133 
	C446.018097,1089.684692 446.018097,1083.083252 446.018097,1075.957275 
	C460.513550,1075.957275 474.568848,1075.957275 488.726196,1075.957275 
	C488.726196,1071.645142 488.726196,1067.868530 488.726196,1063.989624 
	C469.527954,1063.989624 450.504395,1063.989624 431.511078,1063.989624 
	C431.511078,1091.326416 431.511078,1118.219849 431.511078,1145.315186 
	C450.759277,1145.315186 469.661743,1145.315186 488.563538,1145.315186 
	C488.563538,1141.083618 488.563538,1137.183350 488.563538,1132.770264 
	C474.174469,1132.770264 460.108978,1132.770264 446.200867,1132.770264 
	C446.200867,1124.824585 446.200867,1117.404297 446.200867,1109.460938 
	C458.938507,1109.460938 471.338165,1109.460938 483.577728,1109.460938 
	C483.577728,1105.012207 483.577728,1101.114258 483.577728,1096.942139 
	C471.029602,1096.942139 458.880035,1096.942139 446.018097,1096.286133 
M180.587372,1247.697754 
	C180.061264,1246.315918 179.087128,1244.937012 179.077942,1243.551758 
	C178.979889,1228.740234 178.936966,1213.926636 179.111618,1199.116211 
	C179.158936,1195.103394 181.838745,1192.407349 185.731903,1192.218262 
	C193.201141,1191.855713 200.708786,1191.868896 208.182037,1192.175537 
	C212.073044,1192.335205 214.486267,1194.875244 215.009048,1198.916138 
	C215.170578,1200.164795 215.427643,1201.401245 215.684753,1202.898193 
	C220.627487,1202.252808 225.169205,1201.659790 229.606323,1201.080444 
	C230.273560,1187.784058 225.285019,1180.755005 212.959961,1179.656982 
	C202.407318,1178.716675 191.641693,1178.780273 181.081558,1179.690918 
	C169.955322,1180.650269 165.005936,1185.594482 164.552582,1196.695679 
	C163.860703,1213.637695 164.024597,1230.646240 164.637604,1247.597290 
	C164.962433,1256.578735 171.129425,1262.461182 180.135727,1262.926758 
	C191.407043,1263.509399 202.768402,1263.632202 214.022690,1262.902222 
	C225.245392,1262.174316 231.359955,1252.995972 229.210251,1241.447266 
	C224.763199,1240.954102 220.233307,1240.451782 215.745819,1239.954102 
	C213.890350,1249.839478 212.569351,1250.949829 202.835037,1251.022949 
	C198.174713,1251.057861 193.487198,1251.295044 188.863159,1250.876221 
	C186.187973,1250.633911 183.614563,1249.268433 180.587372,1247.697754 
M394.499878,1076.076172 
	C401.250519,1076.076172 408.001190,1076.076172 414.713043,1076.076172 
	C414.713043,1071.561401 414.713043,1067.797241 414.713043,1063.855835 
	C395.546234,1063.855835 376.645264,1063.855835 357.581055,1063.855835 
	C357.581055,1091.170654 357.581055,1118.183228 357.581055,1145.255127 
	C362.543030,1145.255127 367.112061,1145.255127 372.189209,1145.255127 
	C372.189209,1133.973877 372.189209,1123.065918 372.189209,1111.600342 
	C385.086975,1111.600342 397.475037,1111.600342 409.673401,1111.600342 
	C409.673401,1107.121216 409.673401,1103.228882 409.673401,1098.980835 
	C397.007812,1098.980835 384.743469,1098.980835 372.286377,1098.980835 
	C372.286377,1091.233643 372.286377,1083.859009 372.286377,1076.076172 
	C379.574371,1076.076172 386.537201,1076.076172 394.499878,1076.076172 
M22.506262,1192.977539 
	C26.926100,1192.977539 31.345940,1192.977539 36.112827,1192.977539 
	C36.112827,1216.394409 36.112827,1239.137573 36.112827,1262.084839 
	C41.038841,1262.084839 45.600986,1262.084839 50.784641,1262.084839 
	C50.784641,1238.930908 50.784641,1216.090332 50.784641,1192.846069 
	C59.642864,1192.846069 67.884514,1192.846069 76.215561,1192.846069 
	C76.215561,1188.532349 76.215561,1184.641968 76.215561,1180.601807 
	C54.111450,1180.601807 32.393536,1180.601807 10.392332,1180.601807 
	C10.392332,1184.775391 10.392332,1188.659790 10.392332,1192.977539 
	C14.267761,1192.977539 17.892733,1192.977539 22.506262,1192.977539 
M547.497681,1262.328003 
	C552.963379,1262.328003 558.429138,1262.328003 564.204346,1262.328003 
	C564.204346,1257.958008 564.204346,1254.076294 564.204346,1249.746948 
	C550.422119,1249.746948 537.004822,1249.746948 523.006470,1249.746948 
	C523.006470,1226.448120 523.006470,1203.590576 523.006470,1180.657959 
	C517.984314,1180.657959 513.560608,1180.657959 509.135529,1180.657959 
	C509.135529,1207.999756 509.135529,1235.025635 509.135529,1262.328125 
	C521.878662,1262.328125 534.188538,1262.328125 547.497681,1262.328003 
M760.111206,1180.342773 
	C756.508057,1180.342773 752.904846,1180.342773 749.370850,1180.342773 
	C749.370850,1208.058472 749.370850,1235.090942 749.370850,1262.136353 
	C754.184387,1262.136353 758.608398,1262.136353 762.796082,1262.136353 
	C763.124634,1261.721680 763.312195,1261.595703 763.312683,1261.468872 
	C763.405029,1235.335938 763.510193,1209.202881 763.455566,1183.070190 
	C763.453613,1182.157837 761.855835,1181.248779 760.111206,1180.342773 
z"/>
<path fill="#CA343B" opacity="1.000000" stroke="none" 
	d="
M30.986031,619.975891 
	C25.684696,593.336060 23.396912,566.822327 23.386082,540.124451 
	C23.328421,397.970551 23.369976,255.816620 23.281778,113.662781 
	C23.279440,109.891472 23.966619,108.278603 28.172144,107.537415 
	C85.033424,97.516037 141.845520,87.215973 198.679123,77.037117 
	C281.219849,62.254124 363.768219,47.514008 446.312408,32.750458 
	C447.622284,32.516186 448.962524,32.343384 450.217560,31.927530 
	C465.763367,26.776407 480.857880,31.601496 495.961029,34.231270 
	C532.349731,40.567326 568.669800,47.296906 605.022949,53.838120 
	C655.122803,62.852863 705.224182,71.859497 755.331238,80.834015 
	C805.449646,89.810577 855.575989,98.742500 905.697815,107.699974 
	C906.981201,107.929329 908.252136,108.228355 910.002380,108.593719 
	C910.002380,110.522675 910.002380,112.313026 910.002380,114.103386 
	C910.001404,256.257294 910.100281,398.411316 909.952942,540.565063 
	C909.889038,602.270996 897.554260,661.229553 868.872925,716.295959 
	C843.583862,764.849609 808.749084,805.621460 767.105713,840.811340 
	C703.065857,894.927002 629.689270,932.528687 551.732666,961.786438 
	C524.947266,971.839111 497.627686,980.473633 470.496338,989.589905 
	C468.314545,990.323059 465.507416,990.381104 463.310181,989.708984 
	C408.792450,973.032776 355.307831,953.615723 303.957520,928.679688 
	C240.456497,897.843018 181.737701,860.009521 132.225845,809.148804 
	C83.595085,759.193115 49.394154,701.015259 33.688797,632.601990 
	C32.757660,628.545898 31.929491,624.466125 30.986031,619.975891 
M484.042908,605.500000 
	C484.043549,687.831299 484.044250,770.162537 484.044525,852.493835 
	C484.044525,854.660461 484.277283,856.864075 483.946869,858.979492 
	C483.754059,860.213989 482.927704,861.931213 481.924652,862.366028 
	C473.337982,866.088623 464.649658,869.584106 455.456329,863.986877 
	C454.894379,863.644653 454.251068,863.327942 453.612091,863.238342 
	C449.922058,862.721191 449.082275,860.633606 449.083649,857.029419 
	C449.171967,623.701233 449.160156,390.373047 449.157166,157.044830 
	C449.157166,155.443314 449.157166,153.841797 449.157166,152.569061 
	C461.141144,148.579712 472.477203,148.435959 484.145691,152.701630 
	C484.145691,210.733017 484.145691,268.666901 484.145691,326.806152 
	C498.569580,326.806152 512.584534,326.806152 526.404358,326.806152 
	C526.662048,326.238007 526.786316,326.091949 526.786438,325.945801 
	C526.830750,256.950165 526.851807,187.954483 526.954346,118.958931 
	C526.958679,116.077187 525.701233,115.399117 523.179321,114.968468 
	C510.221771,112.755707 497.312775,110.257469 484.353088,108.057999 
	C477.661194,106.922287 470.702545,104.716454 464.206696,105.577133 
	C446.740692,107.891327 429.492157,111.802086 412.081177,114.606606 
	C407.546143,115.337097 406.545288,117.034088 406.546967,121.301811 
	C406.645081,373.962982 406.639893,626.624207 406.644348,879.285400 
	C406.644409,882.451965 406.832489,885.633789 406.583618,888.780823 
	C406.341217,891.846313 407.670929,893.155090 410.452454,894.112122 
	C427.599121,900.011536 444.643036,906.214111 461.843750,911.947876 
	C464.742950,912.914307 468.513519,912.921936 471.412872,911.960083 
	C488.472015,906.300415 505.370636,900.158997 522.378418,894.340881 
	C525.622131,893.231262 526.990479,891.826050 526.987732,888.051880 
	C526.875122,731.721985 526.901245,575.392090 526.909912,419.062134 
	C526.909973,417.465332 526.909912,415.868530 526.909912,414.308533 
	C506.464813,414.308533 486.734711,414.308533 467.181091,414.308533 
	C467.181091,428.779846 467.181091,442.842377 467.181091,457.281677 
	C472.884064,457.281677 478.164093,457.281677 484.042908,457.281677 
	C484.042908,506.611389 484.042908,555.555725 484.042908,605.500000 
M328.967255,458.877472 
	C328.978638,460.543182 329.000000,462.208862 329.000031,463.874573 
	C329.002106,593.539062 329.022491,723.203613 328.910339,852.868042 
	C328.906830,856.914734 330.017303,859.070679 333.791595,860.720886 
	C344.924896,865.588562 355.871246,870.882874 366.913879,875.959961 
	C368.320923,876.606873 369.865143,876.955444 371.520660,877.499756 
	C371.520660,625.223206 371.520660,373.655487 371.520660,121.656364 
	C369.150970,122.019867 367.195312,122.277298 365.255524,122.623711 
	C329.222229,129.058853 293.204163,135.581314 257.141388,141.846512 
	C252.861038,142.590134 251.469284,144.010483 251.471603,148.476822 
	C251.586395,368.639709 251.560730,588.802673 251.708405,808.965454 
	C251.709854,811.136292 253.250031,814.167297 255.030640,815.336304 
	C266.859344,823.101929 278.943268,830.479431 290.970764,837.940186 
	C291.748230,838.422546 292.747742,838.546936 294.374817,839.075073 
	C294.374817,711.507629 294.374817,584.463989 294.374817,457.188293 
	C302.167725,457.188293 309.326111,457.098633 316.480743,457.222931 
	C320.571472,457.293976 324.656128,457.713257 328.967255,458.877472 
M561.678040,778.500000 
	C561.678040,811.402039 561.678040,844.304077 561.678040,878.270569 
	C574.987000,872.092102 587.267212,866.223694 599.708374,860.718994 
	C603.362976,859.101990 604.333740,856.976196 604.330261,853.118103 
	C604.213196,722.802734 604.219421,592.487305 604.218201,462.171844 
	C604.218201,460.580048 604.353699,458.988220 604.419678,457.535217 
	C616.267517,457.535217 627.515625,457.535217 639.358337,457.535217 
	C639.358337,584.892334 639.358337,711.888062 639.358337,840.207031 
	C652.879578,831.667419 665.326721,823.696411 677.906006,815.939758 
	C680.986389,814.040344 681.942810,811.787659 681.941406,808.220886 
	C681.853760,588.750916 681.859741,369.280884 681.857056,149.810883 
	C681.856995,147.671326 681.856995,145.531769 681.856995,142.970306 
	C641.785034,135.805084 602.072571,128.704132 561.677734,121.481171 
	C561.677734,340.669464 561.677734,559.084717 561.678040,778.500000 
M216.855515,464.500000 
	C216.855515,359.562286 216.855515,254.624588 216.855515,149.197418 
	C202.212997,151.820984 188.209045,154.330154 173.806702,156.910690 
	C173.806702,242.175385 173.806702,326.923309 173.806702,411.768188 
	C162.061005,411.768188 150.824188,411.768188 138.907333,411.768188 
	C138.907333,328.787170 138.907333,246.127258 138.907333,163.179855 
	C126.571175,165.362732 114.998322,167.818436 103.302437,169.308258 
	C97.444168,170.054489 96.297775,172.475861 96.311066,177.884506 
	C96.481926,247.381348 96.375511,316.878754 96.438057,386.375977 
	C96.488152,442.037354 96.152840,497.706085 96.951744,553.357727 
	C97.675423,603.769470 110.977066,651.007629 136.369965,694.704041 
	C136.944061,695.691956 137.723953,696.560242 138.407852,697.484375 
	C138.744354,697.354919 139.080856,697.225464 139.417358,697.096008 
	C139.417358,616.698242 139.417358,536.300537 139.417358,455.734070 
	C151.165756,455.734070 162.406387,455.734070 173.956238,455.734070 
	C173.956238,457.936188 173.956238,459.756012 173.956223,461.575806 
	C173.955338,554.572083 173.967346,647.568420 173.903305,740.564636 
	C173.900909,744.045898 174.330261,747.002319 177.024857,749.552856 
	C188.994476,760.882874 200.846588,772.336975 212.787582,783.697449 
	C213.766617,784.628845 215.094437,785.193665 216.855423,786.304138 
	C216.855423,678.771973 216.855423,572.135986 216.855515,464.500000 
M755.251648,298.499969 
	C755.251648,448.624908 755.251648,598.749817 755.251648,750.052124 
	C756.966858,748.508972 757.622620,748.016846 758.162048,747.419617 
	C772.711853,731.309509 785.712708,714.048340 796.522949,695.203125 
	C797.604248,693.318115 798.043518,690.813354 798.044495,688.595947 
	C798.113220,530.462646 798.107056,372.329346 798.107117,214.196045 
	C798.107117,212.275833 798.107056,210.355606 798.107056,207.975067 
	C811.383667,210.271378 823.863586,212.429901 836.905762,214.685669 
	C836.905762,200.894226 836.772095,188.087494 836.991882,175.286804 
	C837.053406,171.707657 835.970154,170.477875 832.424377,169.859497 
	C803.090698,164.743973 773.799377,159.385849 744.489502,154.133392 
	C735.410522,152.506409 726.313843,150.978699 716.742493,149.321976 
	C716.742493,163.559250 716.649536,177.031555 716.906555,190.497208 
	C716.928833,191.663376 719.113098,193.517151 720.546753,193.810043 
	C730.327393,195.808105 740.142761,197.701706 750.018250,199.138947 
	C754.212097,199.749283 755.389771,201.318741 755.363647,205.519989 
	C755.172729,236.179016 755.255493,266.839752 755.251648,298.499969 
M529.000000,857.500000 
	C529.000000,711.105042 529.000000,564.710083 529.000000,418.315094 
	C528.764221,418.315552 528.528381,418.315979 528.292603,418.316437 
	C528.292603,572.836792 528.292603,727.357178 528.292603,881.877625 
	C528.528381,881.879883 528.764221,881.882202 529.000000,881.884521 
	C529.000000,874.089661 529.000000,866.294861 529.000000,857.500000 
z"/>
<path fill="#464648" opacity="1.000000" stroke="none" 
	d="
M380.872375,1228.069336 
	C382.763580,1231.039185 384.468567,1233.698853 386.920380,1237.523438 
	C386.920380,1217.913208 386.920380,1199.502930 386.920380,1180.727539 
	C392.131042,1180.727539 396.695526,1180.727539 401.622406,1180.727539 
	C401.622406,1207.778320 401.622406,1234.816040 401.622406,1262.380615 
	C397.481598,1262.380615 393.310089,1262.723877 389.249146,1262.203857 
	C387.724304,1262.008423 386.110992,1260.029419 385.124054,1258.488281 
	C374.535522,1241.952637 364.066376,1225.340454 353.555573,1208.754883 
	C352.978210,1207.843872 352.322571,1206.982422 350.948303,1205.019165 
	C350.948303,1224.745117 350.948303,1243.116089 350.948303,1261.942627 
	C345.854797,1261.942627 341.165344,1261.942627 336.255005,1261.942627 
	C336.255005,1234.953979 336.255005,1208.021484 336.255005,1180.401489 
	C340.578613,1180.401489 344.872467,1180.117188 349.088623,1180.564819 
	C350.453918,1180.709839 351.917450,1182.579956 352.823517,1183.990234 
	C362.171356,1198.541138 371.414062,1213.159424 380.872375,1228.069336 
z"/>
<path fill="#454548" opacity="1.000000" stroke="none" 
	d="
M520.854797,1097.117432 
	C520.847961,1113.392212 520.847961,1129.184814 520.847961,1145.298828 
	C515.940063,1145.298828 511.374512,1145.298828 506.490356,1145.298828 
	C506.490356,1118.180054 506.490356,1091.285034 506.490356,1063.578369 
	C510.694214,1063.578369 514.970703,1063.297729 519.171387,1063.739258 
	C520.535339,1063.882568 522.012085,1065.715576 522.909424,1067.114258 
	C533.153076,1083.082031 543.291626,1099.117188 553.469360,1115.127319 
	C554.336182,1116.490967 555.283508,1117.803467 557.158691,1118.984375 
	C557.158691,1100.713379 557.158691,1082.442505 557.158691,1063.869141 
	C562.434204,1063.869141 567.006104,1063.869141 571.819580,1063.869141 
	C571.819580,1090.950562 571.819580,1117.870361 571.819580,1145.534790 
	C567.570374,1145.534790 563.279419,1145.889404 559.106018,1145.344482 
	C557.621094,1145.150757 556.145874,1142.948608 555.133728,1141.364502 
	C544.031311,1123.987549 533.021362,1106.551636 520.861633,1089.184937 
	C520.861633,1091.668457 520.861633,1094.151855 520.854797,1097.117432 
z"/>
<path fill="#454547" opacity="1.000000" stroke="none" 
	d="
M662.783203,1244.088013 
	C662.765442,1228.974243 662.638489,1214.312988 662.801819,1199.655151 
	C662.954651,1185.935059 669.407410,1179.415405 683.015869,1179.165405 
	C692.006226,1179.000122 701.030945,1178.796387 709.991516,1179.370361 
	C722.995972,1180.203613 728.910522,1187.604370 727.782349,1201.098999 
	C723.337891,1201.680542 718.791138,1202.275513 714.268616,1202.867432 
	C711.988525,1192.593872 711.069336,1191.873169 700.410950,1191.871948 
	C695.746582,1191.871338 691.077698,1191.793091 686.419006,1191.967773 
	C680.364685,1192.194946 677.511108,1194.475464 677.383789,1200.345947 
	C677.080566,1214.331299 677.084473,1228.330811 677.342163,1242.317505 
	C677.449951,1248.164917 680.261719,1250.656006 686.237427,1250.907715 
	C692.390137,1251.167236 698.569397,1251.166260 704.723145,1250.925537 
	C710.703674,1250.691650 713.150024,1248.277222 713.593872,1242.316406 
	C713.886902,1238.380981 713.649292,1234.406006 713.649292,1230.006226 
	C706.305481,1230.006226 699.374878,1230.006226 692.016968,1230.006226 
	C692.016968,1225.683472 692.016968,1221.803589 692.016968,1217.574951 
	C703.864929,1217.574951 715.727844,1217.574951 727.686523,1217.574951 
	C727.686523,1228.282837 728.308838,1238.925415 727.480713,1249.453979 
	C726.868164,1257.242065 721.036560,1262.403076 712.954956,1262.883545 
	C702.013306,1263.534302 690.968994,1263.775391 680.044739,1263.048950 
	C668.265076,1262.265747 663.499023,1256.483643 662.783203,1244.088013 
z"/>
<path fill="#474749" opacity="1.000000" stroke="none" 
	d="
M432.335632,1181.189941 
	C446.680817,1177.716675 460.828766,1178.348999 474.838989,1180.306763 
	C482.570648,1181.387207 487.303192,1187.117676 487.545807,1195.487183 
	C488.042725,1212.628052 488.138031,1229.805908 487.584839,1246.942261 
	C487.265137,1256.846313 481.148102,1262.576660 471.206512,1263.046265 
	C460.418945,1263.555786 449.557587,1263.650269 438.785126,1262.994629 
	C428.906494,1262.393188 423.056366,1256.769653 422.765656,1247.088989 
	C422.246399,1229.796631 422.580017,1212.472290 422.859802,1195.166138 
	C422.961243,1188.890869 426.157745,1184.112549 432.335632,1181.189941 
M472.987762,1198.208862 
	C471.948975,1193.377930 468.392426,1191.997437 464.076538,1191.925537 
	C458.258209,1191.828613 452.434265,1191.813721 446.617340,1191.954224 
	C439.614624,1192.123535 437.024414,1194.701904 436.968964,1201.768188 
	C436.865875,1214.904419 436.864655,1228.042969 436.980194,1241.179077 
	C437.039551,1247.929565 439.652832,1250.670776 446.260742,1250.913086 
	C452.239197,1251.132202 458.237457,1251.124756 464.216827,1250.920410 
	C470.449524,1250.707397 473.112274,1248.170898 473.168243,1241.979736 
	C473.297485,1227.682861 473.129456,1213.383179 472.987762,1198.208862 
z"/>
<path fill="#464648" opacity="1.000000" stroke="none" 
	d="
M198.416870,1143.378662 
	C198.398743,1116.681274 198.398743,1090.433105 198.398743,1063.956177 
	C199.769974,1063.793335 200.722534,1063.581055 201.674805,1063.582275 
	C215.482620,1063.600708 229.298828,1063.364136 243.095551,1063.774902 
	C254.650192,1064.118896 260.814697,1069.908691 261.204437,1081.414795 
	C261.733459,1097.032104 261.672302,1112.691528 261.195953,1128.312500 
	C260.887665,1138.423096 254.980194,1144.536987 244.862549,1145.026978 
	C230.256485,1145.734741 215.603561,1145.503540 200.970261,1145.547485 
	C200.126892,1145.549927 199.280151,1144.426880 198.416870,1143.378662 
M212.969727,1129.305786 
	C212.811920,1131.489868 212.949768,1133.143921 215.991928,1133.061035 
	C223.312546,1132.861328 230.644974,1133.088989 237.965256,1132.882446 
	C243.679657,1132.721191 246.703125,1129.956665 246.796295,1124.237793 
	C247.013184,1110.922974 246.931839,1097.600708 246.774979,1084.283813 
	C246.720184,1079.631104 243.942352,1076.595825 239.343079,1076.425415 
	C230.745819,1076.107056 222.128342,1076.333984 212.967667,1076.333984 
	C212.967667,1093.819336 212.967667,1111.081787 212.969727,1129.305786 
z"/>
<path fill="#464648" opacity="1.000000" stroke="none" 
	d="
M593.220581,1074.501343 
	C595.699585,1067.198853 600.768311,1063.275513 607.814514,1062.954102 
	C618.763977,1062.454712 629.800171,1062.035767 640.704041,1062.854980 
	C652.326477,1063.728027 657.490112,1071.209106 656.731873,1084.271240 
	C654.599854,1084.540527 652.357727,1084.826416 650.114929,1085.106445 
	C647.820496,1085.392944 645.525330,1085.673584 642.944458,1085.992188 
	C642.652100,1084.640625 642.292175,1083.571045 642.207031,1082.479980 
	C641.846252,1077.860352 639.071838,1075.437500 634.777527,1075.242554 
	C628.134888,1074.941162 621.453064,1074.867676 614.817932,1075.237549 
	C609.391602,1075.540039 607.206177,1078.239258 606.873779,1083.606812 
	C606.367981,1091.774048 607.370728,1093.955078 613.662720,1095.225708 
	C621.477417,1096.803711 629.429016,1097.692261 637.297363,1099.021729 
	C640.728333,1099.601440 644.204590,1100.235352 647.473877,1101.378052 
	C653.132751,1103.356323 656.714355,1107.483643 657.064880,1113.552734 
	C657.408997,1119.511108 657.489624,1125.544678 656.955261,1131.479370 
	C656.261169,1139.187378 651.432800,1145.174194 643.827820,1145.675171 
	C631.105713,1146.513306 618.231079,1146.653442 605.531250,1145.665405 
	C596.503418,1144.963135 590.894287,1136.213867 591.864075,1127.165527 
	C591.971252,1126.165039 593.051636,1124.596191 593.874390,1124.459595 
	C597.769592,1123.814087 601.731995,1123.574341 605.618042,1123.195190 
	C608.117249,1133.486450 608.902588,1134.100220 619.659302,1134.138794 
	C624.320923,1134.155518 628.988403,1134.224243 633.643250,1134.030396 
	C639.990540,1133.766113 642.426208,1131.341919 642.877625,1125.260010 
	C643.484375,1117.084839 641.873962,1114.218018 635.305969,1113.054443 
	C626.957764,1111.575439 618.544189,1110.466309 610.160339,1109.187622 
	C596.414856,1107.091187 592.011780,1102.097534 592.116028,1088.283569 
	C592.149719,1083.816162 592.760498,1079.353027 593.220581,1074.501343 
z"/>
<path fill="#464648" opacity="1.000000" stroke="none" 
	d="
M857.899658,1205.901611 
	C857.939514,1202.423828 857.840393,1199.417847 858.045044,1196.432617 
	C858.689697,1187.027954 863.640015,1180.727783 872.977234,1179.953491 
	C884.042175,1179.036133 895.296082,1178.801758 906.345764,1179.728760 
	C918.162048,1180.720093 923.394653,1188.357300 922.453552,1201.048828 
	C918.022400,1201.641235 913.478943,1202.248535 908.979065,1202.850098 
	C905.580078,1191.939087 905.513672,1191.882324 894.046387,1191.879272 
	C889.717468,1191.878052 885.376953,1191.739868 881.062378,1192.003052 
	C875.288818,1192.355347 872.966797,1194.937256 872.485168,1200.934326 
	C871.895630,1208.274902 873.205933,1210.876465 879.326599,1212.077148 
	C887.474304,1213.675171 895.746521,1214.629395 903.946533,1215.974609 
	C906.724976,1216.430176 909.489868,1217.089355 912.185303,1217.905396 
	C918.800720,1219.907959 922.568909,1224.455933 922.950684,1231.340942 
	C923.244995,1236.648804 923.293091,1242.014404 922.870911,1247.307983 
	C922.166077,1256.145020 916.950623,1262.246460 908.098206,1262.796387 
	C896.178955,1263.536621 884.131042,1263.599487 872.226257,1262.738159 
	C862.663391,1262.046387 856.579956,1253.511230 857.460815,1244.041870 
	C857.555786,1243.020996 858.963318,1241.488403 859.969788,1241.299316 
	C863.695190,1240.599243 867.507690,1240.363159 871.246582,1239.957153 
	C873.825073,1250.291260 874.729065,1250.991699 885.589172,1251.029907 
	C890.251343,1251.046265 894.922791,1251.159180 899.573853,1250.917114 
	C905.742126,1250.596191 908.113037,1248.071533 908.590820,1241.884399 
	C909.191223,1234.108887 907.615967,1231.164429 901.282043,1230.001587 
	C892.617310,1228.411011 883.853760,1227.367432 875.152893,1225.963257 
	C862.568909,1223.932739 858.129822,1218.832764 857.899658,1205.901611 
z"/>
<path fill="#444446" opacity="1.000000" stroke="none" 
	d="
M580.431458,1255.405884 
	C579.319153,1250.748047 577.742737,1246.418091 577.636047,1242.052002 
	C577.298462,1228.234131 577.450684,1214.402222 577.526245,1200.576538 
	C577.606812,1185.843506 583.637024,1179.597168 598.405762,1179.175293 
	C606.727600,1178.937622 615.068970,1178.926270 623.389221,1179.195923 
	C636.507080,1179.621094 642.889832,1186.190308 643.002930,1199.300293 
	C643.130859,1214.124878 643.133545,1228.952393 642.982239,1243.776611 
	C642.855469,1256.192993 637.479248,1262.410034 625.052673,1263.182251 
	C614.613708,1263.831055 604.084351,1263.461182 593.616577,1263.024048 
	C588.339172,1262.803589 583.618713,1260.542358 580.431458,1255.405884 
M628.562134,1229.480469 
	C628.479431,1219.670044 628.603638,1209.851685 628.233643,1200.052124 
	C628.024109,1194.504028 625.524658,1192.193115 620.091492,1191.998901 
	C613.613220,1191.767334 607.112854,1191.758057 600.635742,1192.008057 
	C595.013428,1192.224976 592.208618,1194.880859 592.131226,1200.381226 
	C591.934753,1214.351929 591.940979,1228.328857 592.126892,1242.299683 
	C592.198853,1247.709839 594.758911,1250.535400 599.994324,1250.801514 
	C606.958191,1251.155273 613.966919,1251.072021 620.935059,1250.735596 
	C625.216309,1250.528687 628.039001,1248.036621 628.236145,1243.428833 
	C628.420837,1239.112671 628.459229,1234.790161 628.562134,1229.480469 
z"/>
<path fill="#49494B" opacity="1.000000" stroke="none" 
	d="
M313.185364,1262.290039 
	C308.629761,1262.372925 304.500427,1262.372925 299.980103,1262.372925 
	C299.980103,1250.412109 299.980103,1238.969116 299.980103,1227.239746 
	C287.840607,1227.239746 276.109222,1227.239746 263.881714,1227.239746 
	C263.881714,1238.787109 263.881714,1250.211426 263.881714,1262.030762 
	C258.826996,1262.030762 254.253159,1262.030762 249.366379,1262.030762 
	C249.366379,1234.970337 249.366379,1207.928467 249.366379,1180.607910 
	C253.961029,1180.607910 258.401917,1180.607910 263.526672,1180.607910 
	C263.526672,1191.656860 263.526672,1202.701782 263.526672,1214.048584 
	C275.940155,1214.048584 287.675446,1214.048584 299.833862,1214.048584 
	C299.833862,1203.003784 299.833862,1192.062012 299.833862,1180.727295 
	C304.787537,1180.727295 309.335297,1180.727295 314.186920,1180.727295 
	C314.322510,1181.820801 314.579865,1182.931885 314.580444,1184.043091 
	C314.592926,1208.541992 314.594360,1233.040771 314.525665,1257.539551 
	C314.521301,1259.096313 313.929901,1260.651367 313.185364,1262.290039 
z"/>
<path fill="#464648" opacity="1.000000" stroke="none" 
	d="
M832.898865,1213.968994 
	C834.843445,1214.042603 836.298706,1214.110107 837.948120,1214.186401 
	C837.948120,1218.246460 837.948120,1222.015137 837.948120,1226.318115 
	C825.454346,1226.318115 813.044312,1226.318115 800.328735,1226.318115 
	C800.328735,1234.275146 800.328735,1241.709717 800.328735,1249.678711 
	C814.301208,1249.678711 828.360657,1249.678711 842.737793,1249.678711 
	C842.737793,1254.103027 842.737793,1258.001953 842.737793,1262.153076 
	C823.712952,1262.153076 804.792419,1262.153076 785.601807,1262.153076 
	C785.601807,1234.973633 785.601807,1208.057251 785.601807,1180.745361 
	C804.459839,1180.745361 823.359924,1180.745361 842.665527,1180.745361 
	C842.665527,1184.546631 842.665527,1188.433716 842.665527,1192.835815 
	C828.714905,1192.835815 814.650146,1192.835815 800.308350,1192.835815 
	C800.308350,1199.930786 800.308350,1206.528198 800.308350,1213.962769 
	C810.922546,1213.962769 821.666077,1213.962769 832.898865,1213.968994 
z"/>
<path fill="#474749" opacity="1.000000" stroke="none" 
	d="
M282.057068,1099.000000 
	C282.057098,1087.034302 282.057098,1075.568604 282.057098,1063.828857 
	C301.392487,1063.828857 320.306885,1063.828857 339.534973,1063.828857 
	C339.534973,1067.759277 339.534973,1071.508789 339.534973,1075.850952 
	C325.543365,1075.850952 311.493988,1075.850952 297.086487,1075.850952 
	C297.086487,1083.137451 297.086487,1089.841919 297.086487,1097.006592 
	C309.600372,1097.006592 322.011230,1097.006592 334.680908,1097.006592 
	C334.680908,1101.358887 334.680908,1105.257324 334.680908,1109.523438 
	C322.179199,1109.523438 309.896790,1109.523438 297.167786,1109.523438 
	C297.167786,1117.395386 297.167786,1124.916260 297.167786,1132.829590 
	C311.145691,1132.829590 325.084869,1132.829590 339.433258,1132.829590 
	C339.433258,1137.092529 339.433258,1140.983765 339.433258,1145.262451 
	C320.618530,1145.262451 301.715485,1145.262451 282.057068,1145.262451 
	C282.057068,1129.983643 282.057068,1114.741821 282.057068,1099.000000 
z"/>
<path fill="#474749" opacity="1.000000" stroke="none" 
	d="
M701.042542,1132.985107 
	C712.492310,1132.985107 723.446960,1132.985107 734.702454,1132.985107 
	C734.702454,1137.262939 734.702454,1141.155640 734.702454,1145.353760 
	C715.661133,1145.353760 696.771667,1145.353760 677.561401,1145.353760 
	C677.561401,1118.174072 677.561401,1091.282104 677.561401,1063.969360 
	C696.569519,1063.969360 715.593201,1063.969360 734.812500,1063.969360 
	C734.812500,1067.818115 734.812500,1071.598511 734.812500,1075.902588 
	C720.687866,1075.902588 706.639404,1075.902588 692.256836,1075.902588 
	C692.256836,1083.125488 692.256836,1089.832642 692.256836,1096.992554 
	C704.739258,1096.992554 717.137695,1096.992554 729.809937,1096.992554 
	C729.809937,1101.341064 729.809937,1105.244995 729.809937,1109.625977 
	C717.272583,1109.625977 704.867126,1109.625977 692.193481,1109.625977 
	C692.193481,1117.507812 692.193481,1124.921387 692.193481,1132.985229 
	C695.010437,1132.985229 697.778992,1132.985229 701.042542,1132.985107 
z"/>
<path fill="#464648" opacity="1.000000" stroke="none" 
	d="
M91.428772,1187.214355 
	C91.429779,1184.794800 91.429779,1182.846069 91.429779,1180.626465 
	C110.818077,1180.626465 129.557159,1180.626465 148.692871,1180.626465 
	C148.692871,1184.519165 148.692871,1188.409180 148.692871,1192.807373 
	C134.787949,1192.807373 120.730827,1192.807373 106.363388,1192.807373 
	C106.363388,1200.019531 106.363388,1206.732422 106.363388,1213.929443 
	C118.949432,1213.929443 131.348648,1213.929443 143.957550,1213.929443 
	C143.957550,1218.171021 143.957550,1221.935669 143.957550,1226.278076 
	C131.521606,1226.278076 119.136711,1226.278076 106.409637,1226.278076 
	C106.409637,1234.261108 106.409637,1241.682373 106.409637,1249.597412 
	C120.295692,1249.597412 134.345657,1249.597412 148.741409,1249.597412 
	C148.741409,1253.980469 148.741409,1257.882324 148.741409,1262.098633 
	C129.863052,1262.098633 110.982483,1262.098633 91.427765,1262.098633 
	C91.427765,1237.168579 91.427765,1212.426758 91.428772,1187.214355 
z"/>
<path fill="#474749" opacity="1.000000" stroke="none" 
	d="
M446.374268,1096.614136 
	C458.880035,1096.942139 471.029602,1096.942139 483.577728,1096.942139 
	C483.577728,1101.114258 483.577728,1105.012207 483.577728,1109.460938 
	C471.338165,1109.460938 458.938507,1109.460938 446.200867,1109.460938 
	C446.200867,1117.404297 446.200867,1124.824585 446.200867,1132.770264 
	C460.108978,1132.770264 474.174469,1132.770264 488.563538,1132.770264 
	C488.563538,1137.183350 488.563538,1141.083618 488.563538,1145.315186 
	C469.661743,1145.315186 450.759277,1145.315186 431.511078,1145.315186 
	C431.511078,1118.219849 431.511078,1091.326416 431.511078,1063.989624 
	C450.504395,1063.989624 469.527954,1063.989624 488.726196,1063.989624 
	C488.726196,1067.868530 488.726196,1071.645142 488.726196,1075.957275 
	C474.568848,1075.957275 460.513550,1075.957275 446.018097,1075.957275 
	C446.018097,1083.083252 446.018097,1089.684692 446.374268,1096.614136 
z"/>
<path fill="#474749" opacity="1.000000" stroke="none" 
	d="
M180.791351,1248.053101 
	C183.614563,1249.268433 186.187973,1250.633911 188.863159,1250.876221 
	C193.487198,1251.295044 198.174713,1251.057861 202.835037,1251.022949 
	C212.569351,1250.949829 213.890350,1249.839478 215.745819,1239.954102 
	C220.233307,1240.451782 224.763199,1240.954102 229.210251,1241.447266 
	C231.359955,1252.995972 225.245392,1262.174316 214.022690,1262.902222 
	C202.768402,1263.632202 191.407043,1263.509399 180.135727,1262.926758 
	C171.129425,1262.461182 164.962433,1256.578735 164.637604,1247.597290 
	C164.024597,1230.646240 163.860703,1213.637695 164.552582,1196.695679 
	C165.005936,1185.594482 169.955322,1180.650269 181.081558,1179.690918 
	C191.641693,1178.780273 202.407318,1178.716675 212.959961,1179.656982 
	C225.285019,1180.755005 230.273560,1187.784058 229.606323,1201.080444 
	C225.169205,1201.659790 220.627487,1202.252808 215.684753,1202.898193 
	C215.427643,1201.401245 215.170578,1200.164795 215.009048,1198.916138 
	C214.486267,1194.875244 212.073044,1192.335205 208.182037,1192.175537 
	C200.708786,1191.868896 193.201141,1191.855713 185.731903,1192.218262 
	C181.838745,1192.407349 179.158936,1195.103394 179.111618,1199.116211 
	C178.936966,1213.926636 178.979889,1228.740234 179.077942,1243.551758 
	C179.087128,1244.937012 180.061264,1246.315918 180.791351,1248.053101 
z"/>
<path fill="#464648" opacity="1.000000" stroke="none" 
	d="
M393.999939,1076.076172 
	C386.537201,1076.076172 379.574371,1076.076172 372.286377,1076.076172 
	C372.286377,1083.859009 372.286377,1091.233643 372.286377,1098.980835 
	C384.743469,1098.980835 397.007812,1098.980835 409.673401,1098.980835 
	C409.673401,1103.228882 409.673401,1107.121216 409.673401,1111.600342 
	C397.475037,1111.600342 385.086975,1111.600342 372.189209,1111.600342 
	C372.189209,1123.065918 372.189209,1133.973877 372.189209,1145.255127 
	C367.112061,1145.255127 362.543030,1145.255127 357.581055,1145.255127 
	C357.581055,1118.183228 357.581055,1091.170654 357.581055,1063.855835 
	C376.645264,1063.855835 395.546234,1063.855835 414.713043,1063.855835 
	C414.713043,1067.797241 414.713043,1071.561401 414.713043,1076.076172 
	C408.001190,1076.076172 401.250519,1076.076172 393.999939,1076.076172 
z"/>
<path fill="#49494B" opacity="1.000000" stroke="none" 
	d="
M22.011982,1192.977539 
	C17.892733,1192.977539 14.267761,1192.977539 10.392332,1192.977539 
	C10.392332,1188.659790 10.392332,1184.775391 10.392332,1180.601807 
	C32.393536,1180.601807 54.111450,1180.601807 76.215561,1180.601807 
	C76.215561,1184.641968 76.215561,1188.532349 76.215561,1192.846069 
	C67.884514,1192.846069 59.642864,1192.846069 50.784641,1192.846069 
	C50.784641,1216.090332 50.784641,1238.930908 50.784641,1262.084839 
	C45.600986,1262.084839 41.038841,1262.084839 36.112827,1262.084839 
	C36.112827,1239.137573 36.112827,1216.394409 36.112827,1192.977539 
	C31.345940,1192.977539 26.926100,1192.977539 22.011982,1192.977539 
z"/>
<path fill="#424244" opacity="1.000000" stroke="none" 
	d="
M546.998047,1262.328125 
	C534.188538,1262.328125 521.878662,1262.328125 509.135529,1262.328125 
	C509.135529,1235.025635 509.135529,1207.999756 509.135529,1180.657959 
	C513.560608,1180.657959 517.984314,1180.657959 523.006470,1180.657959 
	C523.006470,1203.590576 523.006470,1226.448120 523.006470,1249.746948 
	C537.004822,1249.746948 550.422119,1249.746948 564.204346,1249.746948 
	C564.204346,1254.076294 564.204346,1257.958008 564.204346,1262.328003 
	C558.429138,1262.328003 552.963379,1262.328003 546.998047,1262.328125 
z"/>
<path fill="#48484A" opacity="1.000000" stroke="none" 
	d="
M760.556519,1180.340576 
	C761.855835,1181.248779 763.453613,1182.157837 763.455566,1183.070190 
	C763.510193,1209.202881 763.405029,1235.335938 763.312683,1261.468872 
	C763.312195,1261.595703 763.124634,1261.721680 762.796082,1262.136353 
	C758.608398,1262.136353 754.184387,1262.136353 749.370850,1262.136353 
	C749.370850,1235.090942 749.370850,1208.058472 749.370850,1180.342773 
	C752.904846,1180.342773 756.508057,1180.342773 760.556519,1180.340576 
z"/>
<path fill="#FEFEFD" opacity="1.000000" stroke="none" 
	d="
M484.042908,605.000000 
	C484.042908,555.555725 484.042908,506.611389 484.042908,457.281677 
	C478.164093,457.281677 472.884064,457.281677 467.181091,457.281677 
	C467.181091,442.842377 467.181091,428.779846 467.181091,414.308533 
	C486.734711,414.308533 506.464813,414.308533 526.909912,414.308533 
	C526.909912,415.868530 526.909973,417.465332 526.909912,419.062134 
	C526.901245,575.392090 526.875122,731.721985 526.987732,888.051880 
	C526.990479,891.826050 525.622131,893.231262 522.378418,894.340881 
	C505.370636,900.158997 488.472015,906.300415 471.412872,911.960083 
	C468.513519,912.921936 464.742950,912.914307 461.843750,911.947876 
	C444.643036,906.214111 427.599121,900.011536 410.452454,894.112122 
	C407.670929,893.155090 406.341217,891.846313 406.583618,888.780823 
	C406.832489,885.633789 406.644409,882.451965 406.644348,879.285400 
	C406.639893,626.624207 406.645081,373.962982 406.546967,121.301811 
	C406.545288,117.034088 407.546143,115.337097 412.081177,114.606606 
	C429.492157,111.802086 446.740692,107.891327 464.206696,105.577133 
	C470.702545,104.716454 477.661194,106.922287 484.353088,108.057999 
	C497.312775,110.257469 510.221771,112.755707 523.179321,114.968468 
	C525.701233,115.399117 526.958679,116.077187 526.954346,118.958931 
	C526.851807,187.954483 526.830750,256.950165 526.786438,325.945801 
	C526.786316,326.091949 526.662048,326.238007 526.404358,326.806152 
	C512.584534,326.806152 498.569580,326.806152 484.145691,326.806152 
	C484.145691,268.666901 484.145691,210.733017 484.145691,152.701630 
	C472.477203,148.435959 461.141144,148.579712 449.157166,152.569061 
	C449.157166,153.841797 449.157166,155.443314 449.157166,157.044830 
	C449.160156,390.373047 449.171967,623.701233 449.083649,857.029419 
	C449.082275,860.633606 449.922058,862.721191 453.612091,863.238342 
	C454.251068,863.327942 454.894379,863.644653 455.456329,863.986877 
	C464.649658,869.584106 473.337982,866.088623 481.924652,862.366028 
	C482.927704,861.931213 483.754059,860.213989 483.946869,858.979492 
	C484.277283,856.864075 484.044525,854.660461 484.044525,852.493835 
	C484.044250,770.162537 484.043549,687.831299 484.042908,605.000000 
z"/>
<path fill="#FEFEFD" opacity="1.000000" stroke="none" 
	d="
M328.855408,458.426605 
	C324.656128,457.713257 320.571472,457.293976 316.480743,457.222931 
	C309.326111,457.098633 302.167725,457.188293 294.374817,457.188293 
	C294.374817,584.463989 294.374817,711.507629 294.374817,839.075073 
	C292.747742,838.546936 291.748230,838.422546 290.970764,837.940186 
	C278.943268,830.479431 266.859344,823.101929 255.030640,815.336304 
	C253.250031,814.167297 251.709854,811.136292 251.708405,808.965454 
	C251.560730,588.802673 251.586395,368.639709 251.471603,148.476822 
	C251.469284,144.010483 252.861038,142.590134 257.141388,141.846512 
	C293.204163,135.581314 329.222229,129.058853 365.255524,122.623711 
	C367.195312,122.277298 369.150970,122.019867 371.520660,121.656364 
	C371.520660,373.655487 371.520660,625.223206 371.520660,877.499756 
	C369.865143,876.955444 368.320923,876.606873 366.913879,875.959961 
	C355.871246,870.882874 344.924896,865.588562 333.791595,860.720886 
	C330.017303,859.070679 328.906830,856.914734 328.910339,852.868042 
	C329.022491,723.203613 329.002106,593.539062 329.000031,463.874573 
	C329.000000,462.208862 328.978638,460.543182 328.855408,458.426605 
M294.153137,382.500000 
	C294.153137,392.896545 294.153137,403.293060 294.153137,413.543213 
	C306.311951,413.543213 317.542023,413.543213 328.686035,413.543213 
	C328.686035,333.309601 328.686035,253.462601 328.686035,173.240540 
	C318.820221,174.990433 309.371338,176.887573 299.846649,178.258041 
	C295.402130,178.897552 294.024658,180.487045 294.037903,185.176361 
	C294.222778,250.617157 294.157532,316.058655 294.153137,382.500000 
z"/>
<path fill="#FEFDFD" opacity="1.000000" stroke="none" 
	d="
M561.677856,778.000000 
	C561.677734,559.084717 561.677734,340.669464 561.677734,121.481171 
	C602.072571,128.704132 641.785034,135.805084 681.856995,142.970306 
	C681.856995,145.531769 681.856995,147.671326 681.857056,149.810883 
	C681.859741,369.280884 681.853760,588.750916 681.941406,808.220886 
	C681.942810,811.787659 680.986389,814.040344 677.906006,815.939758 
	C665.326721,823.696411 652.879578,831.667419 639.358337,840.207031 
	C639.358337,711.888062 639.358337,584.892334 639.358337,457.535217 
	C627.515625,457.535217 616.267517,457.535217 604.419678,457.535217 
	C604.353699,458.988220 604.218201,460.580048 604.218201,462.171844 
	C604.219421,592.487305 604.213196,722.802734 604.330261,853.118103 
	C604.333740,856.976196 603.362976,859.101990 599.708374,860.718994 
	C587.267212,866.223694 574.987000,872.092102 561.678040,878.270569 
	C561.678040,844.304077 561.678040,811.402039 561.677856,778.000000 
M604.236572,325.499969 
	C604.236572,354.773682 604.236572,384.047424 604.236572,413.621887 
	C616.058472,413.621887 627.283447,413.621887 638.676880,413.621887 
	C638.676880,335.365845 638.676880,257.352173 638.676880,179.274963 
	C627.200684,177.233231 616.104553,175.259109 605.234497,173.325211 
	C604.733704,174.024857 604.376953,174.290512 604.376648,174.556625 
	C604.313416,224.537704 604.275513,274.518829 604.236572,325.499969 
z"/>
<path fill="#FEFDFD" opacity="1.000000" stroke="none" 
	d="
M216.855469,465.000000 
	C216.855423,572.135986 216.855423,678.771973 216.855423,786.304138 
	C215.094437,785.193665 213.766617,784.628845 212.787582,783.697449 
	C200.846588,772.336975 188.994476,760.882874 177.024857,749.552856 
	C174.330261,747.002319 173.900909,744.045898 173.903305,740.564636 
	C173.967346,647.568420 173.955338,554.572083 173.956223,461.575806 
	C173.956238,459.756012 173.956238,457.936188 173.956238,455.734070 
	C162.406387,455.734070 151.165756,455.734070 139.417358,455.734070 
	C139.417358,536.300537 139.417358,616.698242 139.417358,697.096008 
	C139.080856,697.225464 138.744354,697.354919 138.407852,697.484375 
	C137.723953,696.560242 136.944061,695.691956 136.369965,694.704041 
	C110.977066,651.007629 97.675423,603.769470 96.951744,553.357727 
	C96.152840,497.706085 96.488152,442.037354 96.438057,386.375977 
	C96.375511,316.878754 96.481926,247.381348 96.311066,177.884506 
	C96.297775,172.475861 97.444168,170.054489 103.302437,169.308258 
	C114.998322,167.818436 126.571175,165.362732 138.907333,163.179855 
	C138.907333,246.127258 138.907333,328.787170 138.907333,411.768188 
	C150.824188,411.768188 162.061005,411.768188 173.806702,411.768188 
	C173.806702,326.923309 173.806702,242.175385 173.806702,156.910690 
	C188.209045,154.330154 202.212997,151.820984 216.855515,149.197418 
	C216.855515,254.624588 216.855515,359.562286 216.855469,465.000000 
z"/>
<path fill="#FEFCFC" opacity="1.000000" stroke="none" 
	d="
M755.251709,297.999939 
	C755.255493,266.839752 755.172729,236.179016 755.363647,205.519989 
	C755.389771,201.318741 754.212097,199.749283 750.018250,199.138947 
	C740.142761,197.701706 730.327393,195.808105 720.546753,193.810043 
	C719.113098,193.517151 716.928833,191.663376 716.906555,190.497208 
	C716.649536,177.031555 716.742493,163.559250 716.742493,149.321976 
	C726.313843,150.978699 735.410522,152.506409 744.489502,154.133392 
	C773.799377,159.385849 803.090698,164.743973 832.424377,169.859497 
	C835.970154,170.477875 837.053406,171.707657 836.991882,175.286804 
	C836.772095,188.087494 836.905762,200.894226 836.905762,214.685669 
	C823.863586,212.429901 811.383667,210.271378 798.107056,207.975067 
	C798.107056,210.355606 798.107117,212.275833 798.107117,214.196045 
	C798.107056,372.329346 798.113220,530.462646 798.044495,688.595947 
	C798.043518,690.813354 797.604248,693.318115 796.522949,695.203125 
	C785.712708,714.048340 772.711853,731.309509 758.162048,747.419617 
	C757.622620,748.016846 756.966858,748.508972 755.251648,750.052124 
	C755.251648,598.749817 755.251648,448.624908 755.251709,297.999939 
z"/>
<path fill="#DA2D31" opacity="1.000000" stroke="none" 
	d="
M529.000000,858.000000 
	C529.000000,866.294861 529.000000,874.089661 529.000000,881.884521 
	C528.764221,881.882202 528.528381,881.879883 528.292603,881.877625 
	C528.292603,727.357178 528.292603,572.836792 528.292603,418.316437 
	C528.528381,418.315979 528.764221,418.315552 529.000000,418.315094 
	C529.000000,564.710083 529.000000,711.105042 529.000000,858.000000 
z"/>
<path fill="#FEFEFE" opacity="1.000000" stroke="none" 
	d="
M473.034912,1198.646729 
	C473.129456,1213.383179 473.297485,1227.682861 473.168243,1241.979736 
	C473.112274,1248.170898 470.449524,1250.707397 464.216827,1250.920410 
	C458.237457,1251.124756 452.239197,1251.132202 446.260742,1250.913086 
	C439.652832,1250.670776 437.039551,1247.929565 436.980194,1241.179077 
	C436.864655,1228.042969 436.865875,1214.904419 436.968964,1201.768188 
	C437.024414,1194.701904 439.614624,1192.123535 446.617340,1191.954224 
	C452.434265,1191.813721 458.258209,1191.828613 464.076538,1191.925537 
	C468.392426,1191.997437 471.948975,1193.377930 473.034912,1198.646729 
z"/>
<path fill="#FCFCFD" opacity="1.000000" stroke="none" 
	d="
M212.968689,1128.824951 
	C212.967667,1111.081787 212.967667,1093.819336 212.967667,1076.333984 
	C222.128342,1076.333984 230.745819,1076.107056 239.343079,1076.425415 
	C243.942352,1076.595825 246.720184,1079.631104 246.774979,1084.283813 
	C246.931839,1097.600708 247.013184,1110.922974 246.796295,1124.237793 
	C246.703125,1129.956665 243.679657,1132.721191 237.965256,1132.882446 
	C230.644974,1133.088989 223.312546,1132.861328 215.991928,1133.061035 
	C212.949768,1133.143921 212.811920,1131.489868 212.968689,1128.824951 
z"/>
<path fill="#FCFCFC" opacity="1.000000" stroke="none" 
	d="
M628.562012,1229.975464 
	C628.459229,1234.790161 628.420837,1239.112671 628.236145,1243.428833 
	C628.039001,1248.036621 625.216309,1250.528687 620.935059,1250.735596 
	C613.966919,1251.072021 606.958191,1251.155273 599.994324,1250.801514 
	C594.758911,1250.535400 592.198853,1247.709839 592.126892,1242.299683 
	C591.940979,1228.328857 591.934753,1214.351929 592.131226,1200.381226 
	C592.208618,1194.880859 595.013428,1192.224976 600.635742,1192.008057 
	C607.112854,1191.758057 613.613220,1191.767334 620.091492,1191.998901 
	C625.524658,1192.193115 628.024109,1194.504028 628.233643,1200.052124 
	C628.603638,1209.851685 628.479431,1219.670044 628.562012,1229.975464 
z"/>
<path fill="#CA363C" opacity="1.000000" stroke="none" 
	d="
M294.153198,382.000000 
	C294.157532,316.058655 294.222778,250.617157 294.037903,185.176361 
	C294.024658,180.487045 295.402130,178.897552 299.846649,178.258041 
	C309.371338,176.887573 318.820221,174.990433 328.686035,173.240540 
	C328.686035,253.462601 328.686035,333.309601 328.686035,413.543213 
	C317.542023,413.543213 306.311951,413.543213 294.153137,413.543213 
	C294.153137,403.293060 294.153137,392.896545 294.153198,382.000000 
z"/>
<path fill="#CA363C" opacity="1.000000" stroke="none" 
	d="
M604.236633,324.999939 
	C604.275513,274.518829 604.313416,224.537704 604.376648,174.556625 
	C604.376953,174.290512 604.733704,174.024857 605.234497,173.325211 
	C616.104553,175.259109 627.200684,177.233231 638.676880,179.274963 
	C638.676880,257.352173 638.676880,335.365845 638.676880,413.621887 
	C627.283447,413.621887 616.058472,413.621887 604.236572,413.621887 
	C604.236572,384.047424 604.236572,354.773682 604.236633,324.999939 
z"/>
</svg>